<svg width="304" height="335" viewBox="0 0 304 335" fill="none" xmlns="http://www.w3.org/2000/svg">
<path d="M64.8354 331.165C63.8799 331.165 63.0714 330.932 62.4099 330.467C61.7606 330.001 61.2706 329.383 60.9398 328.611C60.6213 327.839 60.4621 327 60.4621 326.093C60.4621 325.175 60.6213 324.335 60.9398 323.576C61.2706 322.816 61.7606 322.21 62.4099 321.757C63.0714 321.291 63.8799 321.058 64.8354 321.058C65.742 321.058 66.526 321.291 67.1875 321.757C67.849 322.222 68.3513 322.841 68.6943 323.613C69.0373 324.384 69.2088 325.211 69.2088 326.093C69.2088 326.975 69.0373 327.802 68.6943 328.574C68.3513 329.346 67.849 329.971 67.1875 330.448C66.526 330.926 65.742 331.165 64.8354 331.165ZM64.8538 330.485C65.6746 330.485 66.3116 330.105 66.7649 329.346C67.2181 328.586 67.4448 327.502 67.4448 326.093C67.4448 324.685 67.2181 323.607 66.7649 322.859C66.3116 322.112 65.6746 321.738 64.8538 321.738C64.0085 321.738 63.3593 322.112 62.906 322.859C62.4528 323.594 62.2261 324.672 62.2261 326.093C62.2261 327.514 62.4528 328.605 62.906 329.364C63.3593 330.111 64.0085 330.485 64.8538 330.485ZM76.5583 331.165C75.3945 331.165 74.4635 330.804 73.7652 330.081C73.0792 329.358 72.7362 328.372 72.7362 327.122C72.7362 326.13 72.969 325.205 73.4345 324.348C73.9122 323.49 74.5799 322.774 75.4374 322.198C76.2949 321.61 77.275 321.218 78.3775 321.022C78.4387 321.009 78.5306 321.003 78.6531 321.003C78.8981 321.003 79.0206 321.114 79.0206 321.334C79.0206 321.53 78.9104 321.659 78.6899 321.72C76.4481 322.418 75.1128 323.674 74.684 325.487C75.0883 325.217 75.4864 325.028 75.8784 324.917C76.2827 324.807 76.6992 324.752 77.128 324.752C77.716 324.752 78.255 324.887 78.745 325.156C79.235 325.413 79.6209 325.775 79.9027 326.24C80.1844 326.694 80.3253 327.214 80.3253 327.802C80.3253 328.464 80.1477 329.052 79.7924 329.566C79.4371 330.069 78.9716 330.461 78.3959 330.742C77.8201 331.024 77.2076 331.165 76.5583 331.165ZM76.5583 330.577C77.1341 330.577 77.6118 330.338 77.9916 329.86C78.3714 329.37 78.5612 328.739 78.5612 327.968C78.5612 327.245 78.3714 326.669 77.9916 326.24C77.6118 325.799 77.1157 325.579 76.5032 325.579C76.1969 325.579 75.8784 325.658 75.5477 325.818C75.2169 325.965 74.9045 326.167 74.6105 326.424C74.537 326.718 74.5003 326.957 74.5003 327.141C74.5003 327.631 74.5615 328.139 74.684 328.666C74.8188 329.193 75.0393 329.646 75.3455 330.026C75.664 330.393 76.0683 330.577 76.5583 330.577ZM84.6948 331.018C84.364 331.018 84.0884 330.914 83.8679 330.706C83.6474 330.485 83.5371 330.203 83.5371 329.86C83.5371 329.542 83.6474 329.272 83.8679 329.052C84.0884 328.831 84.3702 328.721 84.7132 328.721C85.0439 328.721 85.3196 328.831 85.5401 329.052C85.7728 329.272 85.8892 329.542 85.8892 329.86C85.8892 330.203 85.7728 330.485 85.5401 330.706C85.3196 330.914 85.0378 331.018 84.6948 331.018ZM89.7973 330.797C89.3685 330.797 89.1542 330.577 89.1542 330.136C89.1664 329.879 89.2338 329.67 89.3563 329.511C89.491 329.352 89.7054 329.174 89.9994 328.978C90.9672 328.329 91.7145 327.796 92.2413 327.38C92.7803 326.951 93.2642 326.412 93.6929 325.763C94.1217 325.113 94.3361 324.384 94.3361 323.576C94.3361 322.988 94.1768 322.535 93.8583 322.216C93.552 321.885 93.1172 321.72 92.5536 321.72C92.0759 321.72 91.6777 321.842 91.3592 322.087C91.053 322.32 90.8998 322.645 90.8998 323.061C90.8998 323.27 90.9488 323.447 91.0468 323.594C91.1448 323.729 91.2428 323.839 91.3408 323.925C91.4511 324.011 91.5062 324.06 91.5062 324.072C91.5062 324.158 91.4205 324.262 91.249 324.384C91.0897 324.507 90.8937 324.568 90.661 324.568C90.2812 324.568 89.9749 324.452 89.7422 324.219C89.5217 323.974 89.4114 323.668 89.4114 323.3C89.4114 322.81 89.5768 322.394 89.9076 322.051C90.2383 321.708 90.6548 321.457 91.1571 321.297C91.6716 321.138 92.1922 321.058 92.719 321.058C93.6378 321.058 94.4279 321.285 95.0895 321.738C95.7632 322.192 96.1001 322.884 96.1001 323.815C96.1001 324.489 95.9164 325.101 95.5488 325.652C95.1813 326.204 94.7403 326.675 94.2258 327.067C93.7235 327.447 93.062 327.9 92.2413 328.427C91.592 328.831 91.1081 329.156 90.7896 329.401V329.493H95.7142C96.0205 329.493 96.241 329.53 96.3757 329.603C96.5227 329.664 96.5963 329.842 96.5963 330.136C96.5963 330.577 96.3819 330.797 95.9531 330.797H89.7973ZM104.961 331.018C104.753 331.018 104.569 330.987 104.41 330.926C104.25 330.865 104.165 330.779 104.152 330.669V327.857H99.7607C99.5647 327.857 99.4177 327.796 99.3197 327.674C99.2217 327.551 99.1727 327.398 99.1727 327.214C99.1727 327.055 99.2156 326.92 99.3013 326.81L104.465 321.169C104.587 321.046 104.777 320.985 105.034 320.985C105.23 320.985 105.396 321.04 105.531 321.15C105.665 321.248 105.739 321.408 105.751 321.628V326.957H106.854C107.025 326.957 107.148 326.982 107.221 327.031C107.295 327.067 107.338 327.19 107.35 327.398C107.35 327.533 107.319 327.643 107.258 327.729C107.209 327.815 107.123 327.857 107.001 327.857H105.751V330.669C105.751 330.779 105.672 330.865 105.512 330.926C105.353 330.987 105.169 331.018 104.961 331.018ZM100.238 326.957H104.152V322.602L100.238 326.957ZM111.596 331.018C111.266 331.018 110.99 330.914 110.769 330.706C110.549 330.485 110.439 330.203 110.439 329.86C110.439 329.542 110.549 329.272 110.769 329.052C110.99 328.831 111.272 328.721 111.615 328.721C111.945 328.721 112.221 328.831 112.442 329.052C112.674 329.272 112.791 329.542 112.791 329.86C112.791 330.203 112.674 330.485 112.442 330.706C112.221 330.914 111.939 331.018 111.596 331.018ZM116.699 330.797C116.27 330.797 116.056 330.577 116.056 330.136C116.068 329.879 116.135 329.67 116.258 329.511C116.393 329.352 116.607 329.174 116.901 328.978C117.869 328.329 118.616 327.796 119.143 327.38C119.682 326.951 120.166 326.412 120.594 325.763C121.023 325.113 121.238 324.384 121.238 323.576C121.238 322.988 121.078 322.535 120.76 322.216C120.454 321.885 120.019 321.72 119.455 321.72C118.977 321.72 118.579 321.842 118.261 322.087C117.954 322.32 117.801 322.645 117.801 323.061C117.801 323.27 117.85 323.447 117.948 323.594C118.046 323.729 118.144 323.839 118.242 323.925C118.353 324.011 118.408 324.06 118.408 324.072C118.408 324.158 118.322 324.262 118.15 324.384C117.991 324.507 117.795 324.568 117.562 324.568C117.183 324.568 116.876 324.452 116.644 324.219C116.423 323.974 116.313 323.668 116.313 323.3C116.313 322.81 116.478 322.394 116.809 322.051C117.14 321.708 117.556 321.457 118.059 321.297C118.573 321.138 119.094 321.058 119.62 321.058C120.539 321.058 121.329 321.285 121.991 321.738C122.665 322.192 123.002 322.884 123.002 323.815C123.002 324.489 122.818 325.101 122.45 325.652C122.083 326.204 121.642 326.675 121.127 327.067C120.625 327.447 119.964 327.9 119.143 328.427C118.493 328.831 118.01 329.156 117.691 329.401V329.493H122.616C122.922 329.493 123.142 329.53 123.277 329.603C123.424 329.664 123.498 329.842 123.498 330.136C123.498 330.577 123.283 330.797 122.855 330.797H116.699ZM127.287 330.797C126.858 330.797 126.644 330.577 126.644 330.136C126.656 329.879 126.723 329.67 126.846 329.511C126.981 329.352 127.195 329.174 127.489 328.978C128.457 328.329 129.204 327.796 129.731 327.38C130.27 326.951 130.754 326.412 131.183 325.763C131.611 325.113 131.826 324.384 131.826 323.576C131.826 322.988 131.666 322.535 131.348 322.216C131.042 321.885 130.607 321.72 130.043 321.72C129.566 321.72 129.167 321.842 128.849 322.087C128.543 322.32 128.39 322.645 128.39 323.061C128.39 323.27 128.439 323.447 128.537 323.594C128.635 323.729 128.733 323.839 128.831 323.925C128.941 324.011 128.996 324.06 128.996 324.072C128.996 324.158 128.91 324.262 128.739 324.384C128.579 324.507 128.383 324.568 128.151 324.568C127.771 324.568 127.465 324.452 127.232 324.219C127.011 323.974 126.901 323.668 126.901 323.3C126.901 322.81 127.066 322.394 127.397 322.051C127.728 321.708 128.144 321.457 128.647 321.297C129.161 321.138 129.682 321.058 130.209 321.058C131.127 321.058 131.918 321.285 132.579 321.738C133.253 322.192 133.59 322.884 133.59 323.815C133.59 324.489 133.406 325.101 133.039 325.652C132.671 326.204 132.23 326.675 131.715 327.067C131.213 327.447 130.552 327.9 129.731 328.427C129.082 328.831 128.598 329.156 128.279 329.401V329.493H133.204C133.51 329.493 133.731 329.53 133.865 329.603C134.012 329.664 134.086 329.842 134.086 330.136C134.086 330.577 133.872 330.797 133.443 330.797H127.287ZM147.093 334.803C146.959 334.803 146.836 334.76 146.726 334.675C146.628 334.601 146.579 334.503 146.579 334.381V317.843C146.579 317.72 146.628 317.622 146.726 317.549C146.836 317.463 146.959 317.42 147.093 317.42C147.216 317.42 147.332 317.463 147.442 317.549C147.553 317.622 147.608 317.72 147.608 317.843V334.381C147.608 334.503 147.553 334.601 147.442 334.675C147.332 334.76 147.216 334.803 147.093 334.803ZM164.228 331.165C162.942 331.165 161.955 330.944 161.269 330.503C160.596 330.05 160.259 329.389 160.259 328.519C160.259 328.078 160.406 327.717 160.7 327.435C161.006 327.141 161.398 326.994 161.876 326.994C162.157 327.006 162.372 327.08 162.519 327.214C162.666 327.337 162.739 327.453 162.739 327.563C162.739 327.576 162.678 327.619 162.556 327.692C162.433 327.766 162.323 327.876 162.225 328.023C162.127 328.17 162.078 328.372 162.078 328.629C162.078 329.205 162.249 329.652 162.592 329.971C162.948 330.277 163.493 330.43 164.228 330.43C164.73 330.43 165.171 330.332 165.551 330.136C165.931 329.94 166.218 329.683 166.414 329.364C166.623 329.033 166.727 328.69 166.727 328.335C166.727 327.894 166.598 327.514 166.341 327.196C166.096 326.877 165.79 326.614 165.422 326.406C165.055 326.185 164.552 325.934 163.915 325.652C163.18 325.322 162.586 325.021 162.133 324.752C161.68 324.482 161.294 324.127 160.975 323.686C160.657 323.233 160.498 322.676 160.498 322.014C160.498 320.948 160.859 320.152 161.582 319.625C162.317 319.098 163.278 318.835 164.467 318.835C165.398 318.835 166.206 319.031 166.892 319.423C167.591 319.815 167.94 320.391 167.94 321.15C167.94 321.591 167.787 321.959 167.48 322.253C167.186 322.535 166.8 322.676 166.323 322.676C166.041 322.663 165.826 322.596 165.679 322.473C165.532 322.339 165.459 322.216 165.459 322.106C165.459 322.094 165.539 322.051 165.698 321.977C165.869 321.904 166.016 321.793 166.139 321.646C166.274 321.499 166.341 321.297 166.341 321.04C166.341 320.587 166.163 320.232 165.808 319.974C165.465 319.717 165.024 319.588 164.485 319.588C163.738 319.588 163.168 319.766 162.776 320.121C162.396 320.464 162.206 320.893 162.206 321.408C162.206 321.836 162.323 322.198 162.556 322.492C162.788 322.774 163.162 323.055 163.677 323.337C164.093 323.558 164.546 323.778 165.036 323.999C165.82 324.354 166.439 324.678 166.892 324.972C167.358 325.266 167.744 325.652 168.05 326.13C168.368 326.608 168.528 327.202 168.528 327.913C168.528 328.525 168.332 329.082 167.94 329.585C167.56 330.075 167.039 330.461 166.378 330.742C165.728 331.024 165.012 331.165 164.228 331.165ZM171.399 330.853C171.301 330.853 171.227 330.816 171.178 330.742C171.129 330.669 171.105 330.583 171.105 330.485C171.117 330.326 171.148 330.234 171.197 330.209C171.258 330.173 171.368 330.154 171.527 330.154C171.846 330.154 172.073 330.099 172.207 329.989C172.342 329.879 172.422 329.75 172.446 329.603C172.471 329.456 172.483 329.223 172.483 328.905V319.956C172.483 319.637 172.471 319.405 172.446 319.258C172.434 319.111 172.361 318.982 172.226 318.872C172.091 318.762 171.864 318.706 171.546 318.706C171.399 318.706 171.289 318.688 171.215 318.651C171.142 318.602 171.105 318.498 171.105 318.339C171.105 318.265 171.129 318.198 171.178 318.137C171.227 318.063 171.301 318.02 171.399 318.008C172.171 317.898 172.832 317.739 173.383 317.53C173.555 317.469 173.696 317.432 173.806 317.42H173.861C174.057 317.42 174.155 317.536 174.155 317.769V326.167C174.694 326.057 175.135 325.83 175.478 325.487L177.022 323.907C177.046 323.87 177.12 323.79 177.242 323.668C177.365 323.533 177.426 323.423 177.426 323.337C177.426 323.153 177.144 323.08 176.581 323.117C176.446 323.092 176.372 322.982 176.36 322.786C176.36 322.688 176.385 322.602 176.434 322.528C176.495 322.455 176.568 322.418 176.654 322.418C177.206 322.455 177.879 322.473 178.676 322.473C178.847 322.473 179.117 322.461 179.484 322.437L179.907 322.418C179.992 322.418 180.06 322.455 180.109 322.528C180.17 322.602 180.201 322.688 180.201 322.786C180.188 322.933 180.158 323.025 180.109 323.061C180.06 323.098 179.986 323.117 179.888 323.117C179.435 323.117 179.061 323.196 178.767 323.355C178.473 323.515 178.13 323.796 177.738 324.201L176.195 325.781C176.513 326.21 177.187 326.994 178.216 328.133C178.682 328.648 178.921 328.917 178.933 328.942C179.374 329.407 179.698 329.719 179.907 329.879C180.127 330.038 180.397 330.13 180.715 330.154C180.74 330.154 180.789 330.16 180.862 330.173C180.948 330.173 181.009 330.197 181.046 330.246C181.095 330.295 181.12 330.375 181.12 330.485C181.12 330.73 181.022 330.853 180.825 330.853C180.715 330.853 180.531 330.84 180.274 330.816C180.017 330.804 179.386 330.797 178.382 330.797C178.014 330.418 177.163 329.45 175.827 327.894C175.411 327.404 175.215 327.171 175.239 327.196C174.884 326.816 174.523 326.645 174.155 326.681V328.905C174.155 329.223 174.161 329.456 174.174 329.603C174.198 329.75 174.278 329.879 174.412 329.989C174.547 330.099 174.774 330.154 175.092 330.154H175.203C175.313 330.154 175.392 330.173 175.441 330.209C175.49 330.246 175.521 330.338 175.533 330.485C175.533 330.583 175.503 330.669 175.441 330.742C175.392 330.816 175.325 330.853 175.239 330.853C174.529 330.816 173.886 330.797 173.31 330.797C172.759 330.797 172.122 330.816 171.399 330.853ZM185.757 331.018C185.022 331.018 184.428 330.81 183.975 330.393C183.521 329.977 183.295 329.456 183.295 328.831C183.295 328.06 183.552 327.484 184.067 327.104C184.581 326.712 185.194 326.461 185.904 326.351C186.615 326.228 187.533 326.136 188.661 326.075V324.623C188.661 324.023 188.507 323.57 188.201 323.264C187.907 322.945 187.429 322.786 186.768 322.786C186.388 322.786 186.057 322.902 185.776 323.135C185.494 323.368 185.353 323.68 185.353 324.072C185.353 324.268 185.396 324.433 185.482 324.568C185.58 324.691 185.678 324.795 185.776 324.881C185.886 324.966 185.941 325.015 185.941 325.028C185.941 325.101 185.861 325.199 185.702 325.322C185.555 325.432 185.371 325.487 185.151 325.487C184.783 325.487 184.489 325.352 184.269 325.083C184.061 324.813 183.956 324.495 183.956 324.127C183.956 323.49 184.238 323.019 184.802 322.712C185.377 322.406 186.07 322.253 186.878 322.253C187.883 322.253 188.697 322.443 189.322 322.823C189.959 323.202 190.278 323.907 190.278 324.936V329.217C190.29 329.474 190.369 329.719 190.516 329.952C190.663 330.185 190.902 330.301 191.233 330.301C191.331 330.301 191.398 330.32 191.435 330.356C191.484 330.393 191.509 330.473 191.509 330.595C191.509 330.742 191.392 330.846 191.16 330.908C190.939 330.981 190.719 331.018 190.498 331.018C190.033 331.018 189.622 330.883 189.267 330.614C188.912 330.344 188.71 329.983 188.661 329.53C188.403 330.007 188.005 330.375 187.466 330.632C186.939 330.889 186.37 331.018 185.757 331.018ZM186.345 330.026C186.762 330.026 187.148 329.922 187.503 329.713C187.858 329.505 188.14 329.223 188.348 328.868C188.556 328.501 188.661 328.096 188.661 327.655V326.608C187.374 326.706 186.468 326.914 185.941 327.233C185.414 327.551 185.151 328.066 185.151 328.776C185.151 329.609 185.549 330.026 186.345 330.026ZM194.154 330.853C194.069 330.853 193.995 330.816 193.934 330.742C193.885 330.669 193.86 330.583 193.86 330.485C193.873 330.326 193.903 330.234 193.952 330.209C194.013 330.173 194.124 330.154 194.283 330.154C194.601 330.154 194.828 330.099 194.963 329.989C195.098 329.879 195.177 329.75 195.202 329.603C195.226 329.456 195.239 329.223 195.239 328.905V319.938C195.239 319.619 195.226 319.386 195.202 319.239C195.19 319.092 195.116 318.964 194.981 318.853C194.847 318.743 194.62 318.688 194.301 318.688C194.154 318.688 194.044 318.67 193.971 318.633C193.897 318.584 193.86 318.48 193.86 318.321C193.86 318.247 193.885 318.18 193.934 318.118C193.983 318.045 194.056 318.002 194.154 317.99C194.926 317.879 195.588 317.72 196.139 317.512C196.31 317.451 196.451 317.414 196.562 317.402H196.617C196.813 317.402 196.911 317.518 196.911 317.751V328.905C196.911 329.223 196.923 329.456 196.947 329.603C196.972 329.75 197.052 329.879 197.186 329.989C197.321 330.099 197.548 330.154 197.866 330.154H197.976C198.074 330.154 198.148 330.173 198.197 330.209C198.246 330.246 198.277 330.338 198.289 330.485C198.289 330.583 198.264 330.669 198.215 330.742C198.166 330.816 198.093 330.853 197.995 330.853C197.284 330.816 196.641 330.797 196.065 330.797C195.514 330.797 194.877 330.816 194.154 330.853ZM201.158 330.853C201.072 330.853 200.999 330.816 200.937 330.742C200.888 330.669 200.864 330.583 200.864 330.485C200.876 330.326 200.913 330.234 200.974 330.209C201.035 330.173 201.146 330.154 201.305 330.154C201.623 330.154 201.85 330.099 201.985 329.989C202.12 329.879 202.193 329.75 202.205 329.603C202.23 329.456 202.242 329.223 202.242 328.905V324.697C202.242 324.378 202.23 324.146 202.205 323.999C202.193 323.852 202.12 323.723 201.985 323.613C201.85 323.502 201.623 323.447 201.305 323.447C201.158 323.447 201.048 323.429 200.974 323.392C200.901 323.343 200.864 323.239 200.864 323.08C200.864 323.006 200.888 322.939 200.937 322.878C200.986 322.804 201.06 322.761 201.158 322.749C201.93 322.639 202.591 322.479 203.142 322.271C203.314 322.21 203.455 322.173 203.565 322.161H203.62C203.816 322.161 203.914 322.277 203.914 322.51V328.905C203.914 329.223 203.926 329.456 203.951 329.603C203.975 329.75 204.055 329.879 204.19 329.989C204.325 330.099 204.551 330.154 204.87 330.154H204.98C205.078 330.154 205.151 330.173 205.2 330.209C205.249 330.246 205.28 330.338 205.292 330.485C205.292 330.583 205.268 330.669 205.219 330.742C205.17 330.816 205.096 330.853 204.998 330.853C204.288 330.816 203.645 330.797 203.069 330.797C202.518 330.797 201.881 330.816 201.158 330.853ZM202.977 320.121C202.634 320.121 202.346 320.017 202.113 319.809C201.881 319.588 201.764 319.319 201.764 319C201.764 318.719 201.905 318.468 202.187 318.247C202.469 318.026 202.787 317.916 203.142 317.916C203.449 317.916 203.7 318.026 203.896 318.247C204.092 318.455 204.19 318.725 204.19 319.056C204.19 319.35 204.073 319.601 203.841 319.809C203.608 320.017 203.32 320.121 202.977 320.121ZM211.154 331.11C210.554 331.11 210.039 330.889 209.61 330.448C209.182 330.007 208.967 329.376 208.967 328.556V323.153L207.902 323.19C207.828 323.19 207.767 323.159 207.718 323.098C207.669 323.025 207.644 322.945 207.644 322.859C207.644 322.749 207.663 322.657 207.699 322.584C207.748 322.498 207.816 322.449 207.902 322.437C208.33 322.351 208.661 322.216 208.894 322.032C209.139 321.836 209.316 321.628 209.427 321.408C209.537 321.175 209.672 320.826 209.831 320.36C209.892 320.201 210.027 320.121 210.235 320.121C210.321 320.121 210.407 320.146 210.493 320.195C210.578 320.232 210.621 320.293 210.621 320.379L210.493 322.473L212.642 322.345H212.679C212.838 322.345 212.918 322.461 212.918 322.694C212.918 322.829 212.894 322.957 212.845 323.08C212.808 323.19 212.759 323.245 212.698 323.245L210.64 323.19V328.776C210.64 329.18 210.719 329.517 210.878 329.787C211.05 330.056 211.326 330.191 211.705 330.191C212.085 330.191 212.422 330.124 212.716 329.989C212.875 329.928 212.973 329.897 213.01 329.897C213.096 329.897 213.163 329.934 213.212 330.007C213.261 330.069 213.31 330.154 213.359 330.265C213.371 330.289 213.377 330.32 213.377 330.356C213.377 330.405 213.341 330.461 213.267 330.522C212.912 330.755 212.575 330.908 212.257 330.981C211.95 331.067 211.583 331.11 211.154 331.11ZM220.12 331.018C219.287 331.018 218.625 330.767 218.135 330.265C217.645 329.762 217.4 329.101 217.4 328.28V324.881C217.4 324.562 217.388 324.329 217.363 324.182C217.351 324.035 217.277 323.907 217.143 323.796C217.008 323.686 216.781 323.631 216.463 323.631C216.316 323.631 216.206 323.613 216.132 323.576C216.059 323.527 216.022 323.423 216.022 323.264C216.022 323.19 216.046 323.123 216.095 323.061C216.144 322.988 216.218 322.945 216.316 322.933C217.088 322.823 217.749 322.663 218.3 322.455C218.472 322.394 218.613 322.357 218.723 322.345H218.778C218.974 322.345 219.072 322.461 219.072 322.694V328.262C219.072 328.825 219.25 329.26 219.605 329.566C219.96 329.86 220.371 330.007 220.836 330.007C221.412 330.007 221.902 329.866 222.306 329.585C222.711 329.303 222.98 329.021 223.115 328.739V324.881C223.115 324.562 223.103 324.329 223.078 324.182C223.066 324.035 222.992 323.907 222.858 323.796C222.723 323.686 222.496 323.631 222.178 323.631C222.031 323.631 221.92 323.613 221.847 323.576C221.773 323.527 221.737 323.423 221.737 323.264C221.737 323.19 221.761 323.123 221.81 323.061C221.859 322.988 221.933 322.945 222.031 322.933C222.802 322.823 223.464 322.663 224.015 322.455C224.187 322.394 224.328 322.357 224.438 322.345H224.493C224.689 322.345 224.787 322.461 224.787 322.694V329.052C224.787 329.775 225.271 330.136 226.239 330.136C226.447 330.136 226.551 330.252 226.551 330.485C226.551 330.657 226.447 330.761 226.239 330.797L223.28 331C223.194 331 223.145 330.969 223.133 330.908C223.121 330.859 223.115 330.767 223.115 330.632V329.603H223.078C222.723 329.934 222.435 330.191 222.214 330.375C221.994 330.546 221.706 330.693 221.351 330.816C221.008 330.951 220.597 331.018 220.12 331.018ZM232.74 331.018C232.054 331.018 231.417 330.834 230.829 330.467C230.241 330.087 229.77 329.566 229.414 328.905C229.059 328.231 228.881 327.472 228.881 326.626C228.881 325.867 229.065 325.15 229.433 324.476C229.8 323.803 230.309 323.264 230.958 322.859C231.607 322.455 232.33 322.253 233.126 322.253C233.506 322.253 233.886 322.302 234.265 322.4C234.645 322.486 234.976 322.608 235.258 322.767H235.313V319.956C235.313 319.637 235.301 319.405 235.276 319.258C235.264 319.111 235.19 318.982 235.056 318.872C234.921 318.762 234.694 318.706 234.376 318.706C234.229 318.706 234.118 318.688 234.045 318.651C233.971 318.602 233.935 318.498 233.935 318.339C233.935 318.265 233.959 318.198 234.008 318.137C234.057 318.063 234.131 318.02 234.229 318.008C235 317.898 235.662 317.739 236.213 317.53C236.385 317.469 236.526 317.432 236.636 317.42H236.691C236.887 317.42 236.985 317.536 236.985 317.769V329.107C236.985 329.83 237.463 330.191 238.418 330.191C238.627 330.191 238.731 330.289 238.731 330.485C238.731 330.657 238.627 330.761 238.418 330.797L235.497 331C235.411 331 235.362 330.969 235.35 330.908C235.337 330.859 235.331 330.767 235.331 330.632V329.897H235.276C234.958 330.228 234.566 330.497 234.1 330.706C233.647 330.914 233.193 331.018 232.74 331.018ZM233.365 330.099C233.794 330.099 234.155 330.02 234.449 329.86C234.755 329.689 235.043 329.462 235.313 329.18V324.329C235.203 323.974 234.97 323.649 234.615 323.355C234.272 323.061 233.837 322.914 233.31 322.914C232.832 322.914 232.397 323.068 232.005 323.374C231.625 323.668 231.325 324.103 231.105 324.678C230.884 325.254 230.774 325.934 230.774 326.718C230.774 327.661 230.995 328.464 231.436 329.125C231.889 329.775 232.532 330.099 233.365 330.099ZM245.402 331.018C244.484 331.018 243.7 330.822 243.05 330.43C242.413 330.038 241.929 329.505 241.599 328.831C241.268 328.158 241.103 327.41 241.103 326.589C241.103 325.867 241.268 325.175 241.599 324.513C241.942 323.839 242.426 323.294 243.05 322.878C243.675 322.461 244.392 322.253 245.2 322.253C246.291 322.253 247.13 322.535 247.718 323.098C248.306 323.649 248.643 324.397 248.728 325.34C248.728 325.744 248.618 326.02 248.398 326.167C248.177 326.314 247.859 326.387 247.442 326.387H242.977C242.977 327.527 243.21 328.433 243.675 329.107C244.153 329.768 244.888 330.099 245.88 330.099C246.407 330.099 246.854 329.989 247.222 329.768C247.589 329.536 247.938 329.15 248.269 328.611C248.33 328.55 248.391 328.519 248.453 328.519C248.538 328.519 248.612 328.543 248.673 328.592C248.796 328.666 248.857 328.776 248.857 328.923C248.857 328.997 248.845 329.052 248.82 329.089C248.44 329.701 247.957 330.179 247.369 330.522C246.793 330.853 246.137 331.018 245.402 331.018ZM245.972 325.689C246.597 325.689 246.928 325.432 246.964 324.917C246.964 324.354 246.811 323.876 246.505 323.484C246.199 323.092 245.764 322.896 245.2 322.896C244.576 322.896 244.061 323.147 243.657 323.649C243.252 324.139 243.026 324.819 242.977 325.689H245.972ZM251.833 333.003C251.723 333.052 251.625 333.039 251.539 332.966C251.453 332.892 251.41 332.8 251.41 332.69C251.41 332.568 251.472 332.482 251.594 332.433C252.121 332.237 252.513 332.004 252.77 331.735C253.027 331.477 253.156 331.165 253.156 330.797C253.156 330.589 253.095 330.424 252.972 330.301C252.85 330.167 252.678 330.026 252.458 329.879C252.237 329.732 252.066 329.597 251.943 329.474C251.833 329.352 251.778 329.199 251.778 329.015C251.778 328.782 251.87 328.574 252.053 328.39C252.237 328.194 252.452 328.096 252.697 328.096C253.04 328.096 253.352 328.207 253.634 328.427C253.916 328.635 254.136 328.911 254.295 329.254C254.467 329.597 254.553 329.94 254.553 330.283C254.553 330.981 254.289 331.551 253.762 331.992C253.236 332.445 252.593 332.782 251.833 333.003ZM264.787 321.426C264.579 320.899 264.377 320.532 264.181 320.323C263.985 320.115 263.697 319.974 263.317 319.901C263.268 319.889 263.194 319.876 263.096 319.864C262.998 319.84 262.931 319.803 262.894 319.754C262.87 319.693 262.858 319.601 262.858 319.478C262.858 319.331 262.894 319.233 262.968 319.184C263.054 319.135 263.182 319.111 263.354 319.111C264.272 319.111 264.971 319.252 265.449 319.533C265.926 319.815 266.306 320.317 266.588 321.04L268.683 327.766H268.756L270.998 319.203H271.953L274.949 327.766H275.004L277.08 320.838C277.129 320.654 277.154 320.495 277.154 320.36C277.154 320.189 277.092 320.078 276.97 320.029C276.847 319.968 276.615 319.938 276.272 319.938H276.161C276.039 319.938 275.953 319.919 275.904 319.882C275.855 319.833 275.825 319.723 275.812 319.552C275.812 319.441 275.837 319.35 275.886 319.276C275.947 319.19 276.027 319.147 276.125 319.147C276.921 319.184 277.589 319.203 278.128 319.203C278.36 319.203 278.808 319.19 279.469 319.166L279.855 319.147C279.965 319.147 280.045 319.19 280.094 319.276C280.155 319.35 280.186 319.441 280.186 319.552C280.173 319.723 280.143 319.833 280.094 319.882C280.045 319.919 279.959 319.938 279.837 319.938C279.298 319.938 278.875 320.029 278.569 320.213C278.275 320.385 278.06 320.709 277.926 321.187L274.912 330.981H274.048L271.071 322.216L268.701 330.981H267.837L264.787 321.426ZM280.587 330.853C280.477 330.853 280.397 330.816 280.348 330.742C280.287 330.657 280.256 330.559 280.256 330.448C280.268 330.265 280.305 330.154 280.366 330.118C280.428 330.081 280.501 330.062 280.587 330.062C280.673 330.062 280.728 330.062 280.752 330.062C281.12 330.062 281.389 329.971 281.561 329.787C281.732 329.591 281.867 329.376 281.965 329.144C282.075 328.899 282.149 328.733 282.186 328.648L285.401 321.04C285.475 320.856 285.512 320.709 285.512 320.599C285.512 320.379 285.426 320.219 285.254 320.121C285.083 320.023 284.844 319.944 284.538 319.882C284.329 319.846 284.201 319.809 284.152 319.772C284.103 319.735 284.078 319.631 284.078 319.46C284.078 319.313 284.115 319.215 284.189 319.166C284.274 319.117 284.403 319.092 284.574 319.092C285.187 319.092 285.671 319.141 286.026 319.239C286.394 319.325 286.712 319.509 286.982 319.791C287.251 320.06 287.502 320.477 287.735 321.04L290.822 328.648C291.006 329.113 291.184 329.462 291.355 329.695C291.527 329.928 291.784 330.05 292.127 330.062H292.237C292.36 330.062 292.445 330.087 292.494 330.136C292.543 330.173 292.574 330.277 292.586 330.448C292.586 330.559 292.556 330.657 292.494 330.742C292.445 330.816 292.366 330.853 292.255 330.853C291.471 330.816 290.798 330.797 290.234 330.797C289.499 330.797 288.74 330.816 287.956 330.853C287.845 330.853 287.76 330.816 287.698 330.742C287.649 330.657 287.625 330.559 287.625 330.448C287.637 330.277 287.668 330.173 287.717 330.136C287.766 330.087 287.851 330.062 287.974 330.062C288.39 330.062 288.684 330.026 288.856 329.952C289.027 329.866 289.113 329.719 289.113 329.511C289.113 329.352 289.04 329.064 288.893 328.648L288.268 327.122H283.729C283.423 327.882 283.245 328.323 283.196 328.445C283.16 328.568 283.141 328.635 283.141 328.648C282.994 329.113 282.921 329.413 282.921 329.548C282.921 329.756 283.013 329.897 283.196 329.971C283.38 330.032 283.729 330.062 284.244 330.062H284.354C284.476 330.062 284.562 330.087 284.611 330.136C284.66 330.173 284.691 330.277 284.703 330.448C284.703 330.559 284.672 330.657 284.611 330.742C284.562 330.816 284.483 330.853 284.372 330.853C283.588 330.816 282.921 330.797 282.369 330.797C281.977 330.797 281.383 330.816 280.587 330.853ZM284.078 326.332H287.937L286.081 321.61H286.026L284.078 326.332Z" fill="black"/>
<path d="M52.6405 208.902C51.699 208.388 50.7078 207.972 49.6822 207.658C46.0413 206.916 43.3166 204.47 40.1847 202.79C38.0091 201.645 36.2214 199.883 35.0467 197.725C34.0347 195.883 32.1064 196.631 30.6153 196.254C28.5826 195.816 26.5215 195.523 24.4473 195.375C24.0195 195.444 23.6272 195.654 23.3335 195.973C22.6448 196.571 21.9981 197.169 21.3334 197.767C20.6687 197.025 19.7405 196.391 19.4051 195.524C19.0099 194.508 18.5309 193.049 20.0938 192.457C20.7585 192.205 21.9861 192.223 22.3754 192.648C23.573 193.958 25.142 194.233 26.6391 194.562C28.7347 194.923 30.8473 195.179 32.9688 195.327C32.9602 194.954 32.8936 194.585 32.7711 194.233C31.4777 192.11 30.256 189.927 28.7769 187.936C28.0392 187.097 27.0962 186.465 26.0402 186.1C24.0641 185.31 23.0041 183.839 23.6449 182.123C23.9084 181.429 24.6809 180.329 25.0821 180.407C26.0701 180.572 26.9743 181.063 27.6511 181.8C28.1302 182.35 28.0224 183.391 28.214 184.192C28.2997 184.914 28.5019 185.616 28.8128 186.273C30.4177 188.773 32.1064 191.225 33.7951 193.671C34.0946 194.107 34.5497 194.43 34.891 194.867C35.216 195.185 35.4799 195.56 35.6695 195.973C36.0786 197.269 36.7627 198.462 37.6752 199.47C38.5877 200.478 39.7071 201.278 40.9572 201.815C40.6937 199.507 40.1428 197.163 40.2446 194.855C40.3584 192.199 41.083 189.568 41.4842 186.919C41.6038 186.198 41.6038 185.463 41.4842 184.742C41.2806 183.666 41.5201 182.841 42.5441 182.398C43.0825 182.178 43.6844 182.171 44.2281 182.377C44.7718 182.584 45.2166 182.989 45.4724 183.51C45.8617 184.527 46.1371 185.657 44.7778 186.166C42.8495 186.889 42.2208 188.438 42.0351 190.244C41.6998 192.748 41.5278 195.271 41.5201 197.797C41.6339 201.57 44.3287 204.787 47.9456 205.965C49.7002 206.563 51.4428 207.161 53.2034 207.676C53.8557 207.926 54.5466 208.062 55.2454 208.076C57.497 207.945 59.3414 209.117 61.3356 209.829C61.5511 209.906 61.7607 209.996 62.4374 210.265C62.0182 209.536 61.8386 209.183 61.623 208.86C60.4253 207.15 59.2277 205.451 58.03 203.741C56.2335 201.187 55.6347 198.251 55.0358 195.237C54.7783 193.886 53.7304 192.66 52.9579 191.434C52.1854 190.208 51.2512 188.988 50.4188 187.75C49.1493 185.867 47.8797 183.983 46.6521 182.069C46.0105 181.12 45.4477 180.12 44.9694 179.079C43.6919 176.109 42.4643 173.119 41.2866 170.109C40.7476 168.734 39.7236 168.118 38.4301 167.544C36.2248 166.474 33.6998 166.26 31.3459 166.946C28.7889 167.663 26.0582 167.729 23.4293 168.214C22.4828 168.336 21.5945 168.738 20.8783 169.368C19.9381 170.39 19.1297 170.151 18.2554 169.577C17.1595 168.853 17.2194 167.825 17.8123 166.82C18.4051 165.816 19.2734 165.529 20.2435 166.097C22.4652 167.406 24.8785 167.197 27.196 166.844C30.4417 166.354 33.4718 164.386 37.1307 165.869C37.0049 165.271 37.0289 164.919 36.9031 164.841C34.7473 163.549 32.7113 161.588 30.3698 161.181C26.1175 160.458 21.9168 159.459 17.7943 158.191C17.1056 157.976 16.2194 158.388 15.3989 158.508C15.0929 158.612 14.7694 158.655 14.4468 158.634C10.8538 157.563 6.06311 159.71 4.60195 163.101C4.54623 163.307 4.44458 163.498 4.30461 163.659C4.16463 163.82 3.98994 163.948 3.79359 164.033C3.59724 164.117 3.3843 164.156 3.17068 164.147C2.95705 164.138 2.74827 164.081 2.55993 163.98C2.07477 163.833 1.66307 163.509 1.40757 163.072C1.15206 162.635 1.07169 162.117 1.18261 161.624C1.4461 160.176 2.54795 159.542 4.05102 159.716C4.71977 159.781 5.39438 159.688 6.02119 159.447C8.18897 158.616 10.3208 157.701 12.4647 156.81C12.6928 156.683 12.911 156.539 13.1174 156.379C12.8216 156.108 12.5053 155.86 12.1712 155.638C9.59623 154.238 7.0452 152.797 4.41631 151.517C3.51207 151.075 2.39225 151.093 1.3922 150.824C0.392145 150.555 -0.290526 149.921 0.12267 149C0.298571 148.592 0.557745 148.226 0.883599 147.924C1.20945 147.622 1.59481 147.392 2.01499 147.248C2.44921 147.233 2.88024 147.326 3.26987 147.518C3.6595 147.71 3.99569 147.995 4.24864 148.348C5.61997 151.147 8.17101 152.289 10.7161 153.604C14.5652 155.706 18.6233 157.402 22.8245 158.663C24.5791 159.148 26.3816 159.453 28.1661 159.859L28.4236 159.441C28.2027 159.056 27.9396 158.697 27.6391 158.37C26.6331 157.485 25.6031 156.618 24.5252 155.823C24.1462 155.655 23.741 155.554 23.3275 155.524C22.549 155.321 21.4532 155.35 21.0639 154.848C20.4963 153.977 20.1736 152.969 20.1297 151.93C20.1297 151.649 21.1238 151.021 21.6927 150.991C22.2568 150.934 22.8227 151.079 23.2898 151.4C23.7569 151.721 24.0949 152.197 24.2437 152.743C25.1719 155.913 28.196 156.929 30.1423 159.088L30.7411 158.795L30.4776 156.762C30.3099 155.466 30.1403 154.17 29.9686 152.875C29.6332 150.333 29.6333 147.588 26.7109 146.392C26.5781 146.324 26.4518 146.244 26.3337 146.153C24.6689 145.059 24.1479 143.725 24.9384 142.565C25.7288 141.405 27.6032 141.279 28.9626 142.404C29.4356 142.798 29.9267 143.863 29.7171 144.252C28.8308 145.89 29.5374 147.283 30.1363 148.665C30.8707 150.199 31.1293 151.917 30.8788 153.598C30.7531 154.382 31.0824 155.249 31.2441 156.074C31.3699 156.708 31.7891 157.378 31.6633 157.94C31.2561 159.788 32.2981 160.715 33.6514 161.528C34.6754 162.126 35.7174 162.724 36.7354 163.352C39.6089 165.115 41.7611 167.841 42.8076 171.042C43.9035 174.08 45.203 177.022 46.4725 180.012C46.6773 180.497 47.0461 180.895 47.5145 181.136C47.3528 180.622 47.1791 180.108 47.0414 179.588C46.215 176.412 45.6341 173.147 44.5203 170.073C42.5441 164.62 42.9992 158.873 42.1249 153.293C41.4063 148.832 42.592 144.479 44.0412 140.257C45.0113 137.434 46.0952 134.648 47.1132 131.837C47.2635 131.524 47.349 131.185 47.3647 130.838C47.1671 128.279 47.1432 125.678 46.6461 123.172C45.9943 120.373 45.1947 117.61 44.2508 114.896C44.0063 114.351 43.6769 113.848 43.2747 113.407C43.0573 113.206 42.857 112.988 42.6759 112.755C41.089 109.424 38.8733 106.284 39.0829 102.367C39.1487 100.98 38.7355 100.257 37.4001 99.8439C35.927 99.3894 34.5138 98.7435 33.0885 98.1515C29.9387 96.8419 28.2978 94.1509 27.1601 91.1908C26.8547 90.3835 27.4176 88.9303 28.0463 88.1529C28.8608 87.1483 29.9985 87.6925 30.9806 88.3802C34.133 90.4836 36.7745 93.2644 38.7116 96.519C38.9582 96.8629 39.2221 97.1942 39.502 97.5117C40.1727 94.7728 40.8315 92.4286 41.2986 90.0426C41.7656 87.6566 40.8494 86.1436 38.9032 84.6128C36.2743 82.5676 34.0527 79.9663 31.813 77.4367C31.1363 76.6773 30.9447 75.4633 30.6153 74.4467C30.2971 73.4556 30.0351 72.4474 29.8309 71.4268C29.7092 71.0156 29.7543 70.5731 29.9566 70.1949C30.1602 69.9796 30.7471 70.1172 31.1543 70.1112C31.2545 70.1152 31.3517 70.1462 31.4357 70.2009C34.394 72.0726 37.2564 74.1298 39.1907 77.066C40.2446 78.6746 40.6638 80.7018 41.3704 82.5377H41.9692C42.095 81.5749 42.2088 80.6061 42.3525 79.6433C42.4683 78.664 42.6382 77.6917 42.8615 76.7311C43.4184 74.656 43.5801 72.6288 42.586 70.6255C41.4243 68.2873 41.6459 65.7637 42.3106 63.4494C43.2806 60.4383 44.4468 57.4939 45.8018 54.6349C46.3696 53.4204 47.0684 52.2714 47.8857 51.2083C48.0536 51.0153 48.2666 50.8668 48.5059 50.776C48.7452 50.6853 49.0032 50.655 49.2571 50.688C49.4515 50.8512 49.6041 51.0585 49.702 51.2926C49.7999 51.5267 49.8404 51.7807 49.82 52.0335C49.6938 53.7073 49.4274 55.3676 49.0235 56.997C48.2151 59.8674 47.0773 62.6481 46.3228 65.5305C45.7239 67.8447 45.5323 70.2607 45.0532 72.6108C44.6401 74.65 44.0771 76.6653 43.5981 78.6925C43.4903 79.153 43.4364 79.6314 43.2867 80.5523C43.7217 80.2717 44.1235 79.9427 44.4844 79.5716C46.1371 77.0361 48.8139 77.0121 51.371 76.8028C52.4608 76.7131 54.3232 78.8839 54.443 80.1158C54.5627 81.3477 53.4609 82.6573 52.0057 83.1058C50.808 83.4526 49.6104 83.8234 48.4606 84.2659C47.0893 84.7981 45.7359 85.1629 44.2688 84.7862C44.0501 84.7837 43.8344 84.8374 43.6425 84.9421C43.4506 85.0468 43.2889 85.199 43.1729 85.3842C42.4124 89.4028 41.7357 93.4452 41.0171 97.5954C42.2148 96.8658 43.4124 96.0645 44.688 95.3648C45.9386 94.6543 47.2349 94.027 48.5684 93.4871C49.7661 93.0266 50.9637 93.0924 51.6704 94.42C52.377 95.7476 52.2273 97.5535 51.0117 98.1874C48.6334 99.4234 46.1699 100.489 43.64 101.375C42.9094 101.632 41.8734 101.004 40.6458 100.699C40.4032 101.268 40.2634 101.875 40.2326 102.493C40.5736 105.772 41.7103 108.919 43.5442 111.66C45.3366 114.354 46.6513 117.336 47.4306 120.475C47.8738 122.084 48.2989 123.692 48.7361 125.307H49.1493C49.8679 123.124 50.4967 120.912 51.323 118.771C53.0597 114.274 54.8741 109.801 56.7126 105.351C57.1856 104.197 57.8264 103.229 56.7605 101.955C56.2155 101.303 56.1616 100.161 56.0299 99.2638C55.6526 97.0093 55.2155 94.7549 55.0418 92.4825C55.0296 91.2636 55.2198 90.0512 55.6047 88.8945C55.7231 88.6918 55.8915 88.5228 56.0938 88.4035C56.2961 88.2841 56.5256 88.2185 56.7605 88.2127C56.9721 88.3068 57.1583 88.4496 57.3041 88.6295C57.4498 88.8093 57.5508 89.021 57.5988 89.2473C57.9342 91.0413 58.1198 92.8951 58.4372 94.707C58.6288 95.8074 58.9582 96.8838 59.2277 97.9661L59.7307 98.0319C60.5451 96.1542 61.4194 94.3004 62.126 92.3928C62.8027 90.6287 63.2219 88.7689 63.9225 87.0107C64.5633 85.45 64.3118 84.1045 63.162 83.046C60.4074 80.5105 59.7007 77.066 58.8444 73.6992C58.4312 72.0666 59.9223 70.1112 61.6709 69.6687C62.9943 69.3398 64.8328 70.5716 65.2639 72.3537C65.6047 73.85 65.819 75.3723 65.9047 76.9045C66.0065 78.1005 65.9047 79.2965 65.9047 80.5404L66.5394 80.6839C67.3009 79.4476 67.9887 78.1677 68.5994 76.8507C69.9528 73.472 72.1266 70.6494 74.3482 67.8328C74.7569 67.2935 75.0003 66.6475 75.0489 65.973C75.3423 60.4534 78.7557 56.9073 82.7918 53.8156C83.2769 53.4448 84.4087 53.9232 85.2351 54.007C85.1572 54.7306 85.3069 55.5917 84.9656 56.1478C83.3787 58.7312 81.6121 61.2009 80.0012 63.7664C79.3066 64.8727 78.8635 66.1285 78.2526 67.2826C78.1801 67.4326 78.0745 67.5643 77.9439 67.6678C77.8132 67.7714 77.6608 67.8441 77.4981 67.8806C75.7016 67.5996 74.7794 68.8494 73.965 69.9617C72.6834 71.7806 71.5174 73.678 70.4738 75.6427C69.5875 77.2394 68.8749 78.9317 68.0784 80.6181C68.1983 80.7172 68.3399 80.7869 68.4916 80.8214C70.9409 80.2653 73.3901 79.6912 75.8334 79.1231C75.9323 79.1049 76.0323 79.0929 76.1328 79.0872C78.3006 78.8659 79.8276 79.5297 79.9893 80.7676C80.151 82.0055 78.2287 84.3078 76.5759 84.4214C73.8991 84.6068 71.1864 84.6367 68.5156 84.6247C68.0365 84.6247 67.5575 84.0865 66.8868 83.6799C66.4354 84.1891 66.051 84.7538 65.743 85.3603C64.9406 87.5011 64.3178 89.7017 63.5033 91.8366C62.6889 93.9715 61.7068 96.0226 60.8565 98.1575C60.556 99.0798 60.316 100.021 60.1379 100.974C61.0481 100.735 61.9703 100.538 62.8626 100.245C64.8028 99.6047 66.7191 98.899 68.6593 98.2472C69.6833 97.9063 70.9169 97.6492 71.4679 98.7495C71.7294 99.2803 71.7698 99.8928 71.5801 100.453C71.3904 101.014 70.9862 101.476 70.4558 101.74C68.827 102.678 67.1203 103.492 65.4196 104.287C63.3693 105.345 61.0592 105.797 58.7606 105.591C57.9222 105.489 57.4611 105.884 57.1258 106.739C55.5448 110.763 53.7304 114.698 52.2572 118.759C51.0596 122.119 50.2571 125.636 49.1493 129.032C47.8438 133.039 46.2868 136.962 45.0233 140.992C43.7598 145.023 42.628 148.91 43.0951 153.12C43.2807 154.764 43.5801 156.391 43.8316 158.03L44.2328 158.071C44.5658 157.07 44.8299 156.047 45.0233 155.01C45.5323 150.859 47.8797 147.893 51.0536 145.442C51.844 144.844 52.1494 144.449 51.8081 143.307C51.412 141.876 51.3627 140.371 51.6644 138.917C52.2213 136.208 53.0896 133.535 53.898 130.904C54.1615 130.031 54.8861 129.302 55.8083 129.708C56.0858 129.915 56.3079 130.187 56.4552 130.5C56.6025 130.813 56.6703 131.157 56.6527 131.502C56.2694 134.157 55.7005 136.783 55.1975 139.42C55.0358 140.275 54.8562 141.124 54.6825 141.973L55.0478 142.392C56.4431 141.866 57.8863 141.435 59.2396 140.789C60.4014 140.233 61.4314 139.408 62.5452 138.75C63.2878 138.313 63.3237 137.847 63.0662 137.028C61.611 132.363 61.8146 127.806 64.2639 123.477C64.713 122.688 65.1801 121.868 66.3538 122.341C66.8069 122.499 67.1801 122.827 67.3938 123.256C67.6075 123.685 67.6448 124.181 67.4976 124.637C66.8329 128.1 66.1083 131.544 65.4256 135C65.2822 135.66 65.3111 136.346 65.5094 136.992C66.5574 136.155 67.6173 135.323 68.6593 134.474C69.0003 134.112 69.3687 133.776 69.7612 133.47C72.6835 131.771 74.468 128.979 76.5999 126.509C78.1688 124.715 80.0551 123.345 82.678 123.632C84.4745 123.83 85.3189 125.175 84.1452 126.485C82.7918 127.925 81.2366 129.162 79.5282 130.157C78.1273 130.922 76.634 131.505 75.0848 131.891C72.6895 132.596 71.0846 134.355 68.9468 135.987C69.3496 136.104 69.7668 136.164 70.1863 136.167C72.3781 135.664 74.3782 136.268 76.1747 137.363C77.0023 137.901 77.6783 138.643 78.1389 139.515C78.6599 140.472 77.7376 140.951 77.0131 141.244C75.1447 141.997 73.2284 141.842 71.3181 141.339C69.0126 140.741 66.7131 140.113 64.4016 139.545C63.9716 139.49 63.5357 139.585 63.168 139.814C61.9703 140.52 60.8385 141.315 59.575 142.141C61.4493 142.804 63.2518 143.337 64.9645 144.078C67.1922 145.023 67.8329 146.034 67.6952 147.858C67.6114 148.994 67.0964 149.849 65.8987 149.855C64.6453 149.8 63.3958 149.676 62.156 149.484C61.6527 149.51 61.1487 149.451 60.6649 149.311C59.3832 148.687 58.1484 147.971 56.9701 147.17C54.7604 145.609 52.3111 145.938 50.335 147.69C46.3647 151.176 45.67 155.96 45.203 160.744C44.7359 165.528 45.4605 170.265 46.6761 174.911C46.6868 174.961 46.7029 175.009 46.724 175.055C49.4367 180.341 51.0116 186.172 54.4729 191.099C54.6071 191.248 54.7533 191.386 54.9101 191.512C55.0509 191.274 55.1654 191.021 55.2514 190.758C55.964 187.17 58.4133 184.952 61.2398 183.092C62.5392 182.243 62.8806 181.513 62.0781 180.102C60.7444 177.575 60.1371 174.729 60.3235 171.879C60.3235 171.168 59.7247 170.456 59.4253 169.721C59.1259 168.985 58.6228 168.07 58.7606 167.328C58.8975 166.958 59.1067 166.618 59.376 166.328C59.6453 166.039 59.9694 165.806 60.3295 165.642C60.6458 165.497 60.9882 165.418 61.3361 165.409C61.6839 165.399 62.03 165.461 62.3536 165.588C63.0722 165.929 63.9165 166.587 64.0962 167.275C64.1257 167.662 64.0559 168.05 63.8935 168.402C63.7311 168.755 63.4814 169.06 63.168 169.29C61.5931 170.031 61.3715 171.18 61.3715 172.693C61.3715 175.384 61.623 177.949 63.8028 180.329L65.3118 177.578C66.791 174.881 68.306 172.196 69.7432 169.481C70.9768 167.185 70.6654 165.259 69.1144 163.178C68.7132 162.64 68.9048 161.665 68.821 160.894C70.0187 160.894 71.3361 160.517 72.3661 160.894C73.2823 161.247 72.7673 162.275 72.2284 163.047C71.8309 163.628 71.5972 164.306 71.5517 165.008C71.5617 166.075 71.6417 167.139 71.7912 168.196C73.7554 167.364 75.528 166.521 77.3724 165.863C78.7236 165.394 80.1175 165.057 81.5343 164.859C81.8217 164.817 82.6002 165.78 82.5164 165.917C82.1921 166.602 81.6709 167.174 81.0193 167.562C80.6964 167.68 80.3498 167.721 80.0083 167.679C79.6667 167.637 79.34 167.515 79.0551 167.323C78.8165 167.002 78.4642 166.784 78.0701 166.714C77.676 166.644 77.27 166.727 76.9352 166.946C75.4022 167.753 73.8512 168.542 72.3901 169.469C71.8212 169.828 71.4738 170.534 70.7433 171.425C72.6775 171.514 74.1387 171.76 75.4561 170.827C76.3244 170.229 77.3544 169.882 77.9652 170.827C78.3485 171.425 78.3425 172.884 77.9652 173.183C77.3185 173.661 75.6777 173.924 75.3603 173.536C73.9231 171.808 72.426 172.537 70.869 172.992C70.1444 173.207 69.1264 173.207 68.7611 173.691C67.8237 175.031 67.0723 176.492 66.5275 178.033C68.6593 177.811 70.8031 179.085 72.6116 177.273C72.8324 177.109 73.0843 176.992 73.352 176.928C73.6196 176.864 73.8975 176.856 74.1686 176.903C74.4376 176.94 74.6953 177.035 74.9238 177.182C75.1523 177.328 75.3462 177.523 75.492 177.752C75.6477 178.17 75.4022 179.115 75.0848 179.247C74.2778 179.557 73.4161 179.702 72.5517 179.671C70.378 179.671 68.2102 179.468 66.0364 179.486C65.6711 179.486 65.2998 180.174 64.9525 180.556C64.1022 181.489 63.3237 182.482 62.4135 183.349C61.12 184.587 59.6229 185.633 58.4132 186.937C56.5509 188.952 55.7724 191.278 56.7784 194.065C57.4671 195.973 57.8563 197.994 58.4312 199.95C58.6608 200.539 58.9371 201.109 59.2576 201.654C59.6289 201.223 59.8564 200.996 60.06 200.727C61.2996 198.933 62.5692 197.181 63.7309 195.345C63.8253 195.118 63.8739 194.876 63.8739 194.63C63.8739 194.385 63.8253 194.142 63.7309 193.916C63.2458 192.654 63.5213 191.255 64.6232 191.051C65.0572 190.967 65.504 190.973 65.9357 191.069C66.3673 191.164 66.7747 191.348 67.1323 191.607C67.8269 192.283 67.5934 193.36 66.8029 194.137C65.4975 195.429 64.0243 196.607 62.9644 198.072C62.0397 199.481 61.3029 201.005 60.7727 202.605C60.6753 202.91 60.6441 203.233 60.6813 203.552C60.7184 203.87 60.8231 204.177 60.9882 204.453C63.2878 207.574 65.1801 211.318 68.1743 213.524C71.6655 216.09 74.3602 219.373 77.6718 222.052C82.4146 225.885 86.804 230.155 91.3731 234.203C95.9422 238.252 101.362 241.128 106.703 244.028C119.55 251.057 133.451 255.964 147.867 258.56C163.772 261.388 179.851 261.37 195.894 259.535C201.235 258.937 206.637 258.201 211.787 256.742C223.656 253.435 234.686 248.053 244.333 240.369C258.388 229.15 270.832 216.359 281 201.409C287.486 191.9 291.689 181.429 294.372 170.277C295.444 165.828 296.881 161.462 298.211 157.079C301.071 147.797 302.012 138.031 300.977 128.375C299.78 117.188 298.346 106.025 296.678 94.8864C295.097 84.1224 290.54 74.5543 284.318 65.7039C276.712 54.88 268.215 44.7738 259.616 34.7453C254.37 28.6277 247.549 24.5194 240.375 21.0271C227.7 14.7991 214.397 9.93778 200.69 6.52554C186.398 2.92927 171.671 1.35312 156.94 1.84318C141.448 2.44118 126.561 5.53883 112.734 12.7926C103.817 17.469 95.7207 23.3713 87.9598 29.74C81.0193 35.439 74.2345 41.3233 68.4857 48.2781C66.5215 50.6701 64.7789 53.2116 62.9345 55.6874C62.5991 56.1359 62.2757 56.5903 61.9464 57.0388L61.5511 56.7996C61.7548 56.399 61.9344 55.9863 62.15 55.6036C67.5395 46.52 74.8034 39.0928 82.7499 32.2815C89.6709 26.3339 96.9831 20.8559 104.637 15.8843C116.914 7.94122 130.839 2.88842 145.358 1.10764C158.964 -0.650491 172.533 -0.225914 186.079 1.7475C204.29 4.3566 221.984 9.77958 238.525 17.8218C244.513 20.7221 250.537 23.6045 255.568 27.9879C259.336 31.3169 262.83 34.9424 266.017 38.8297C272.097 46.1492 278.012 53.6063 283.761 61.2009C288.965 68.0959 293.827 75.3258 296.217 83.7098C297.999 90.2399 299.383 96.872 300.36 103.569C301.678 111.977 302.618 120.451 303.546 128.913C304.448 137.817 303.635 146.811 301.151 155.41C298.426 165.247 295.648 175.079 292.408 184.754C288.869 195.321 282.581 204.411 275.593 212.992C267.551 222.9 258.6 232.036 248.855 240.279C243.801 244.543 238.189 247.945 232.411 251.133C223.782 255.873 214.395 259.08 204.667 260.611C193.336 262.506 181.839 263.233 170.359 262.782C162.03 262.417 153.706 261.927 145.526 260.228C126.962 256.383 109.324 248.97 93.5948 238.401C90.6545 236.44 87.4208 234.813 84.744 232.571C81.3965 229.73 78.5221 226.327 75.3723 223.242C73.2763 221.191 71.0487 219.265 68.8809 217.262C67.8509 216.323 66.8927 215.3 65.7849 214.457C64.7921 213.747 63.7403 213.123 62.641 212.591C61.4434 211.993 60.1858 211.509 59.0061 210.875C58.5122 210.589 57.9513 210.438 57.3803 210.438C56.8092 210.438 56.2483 210.589 55.7544 210.875C52.6285 212.406 49.4427 213.805 46.2988 215.306C45.8824 215.509 45.5606 215.865 45.4006 216.299C44.8017 218.524 44.0951 219.289 42.7477 218.948C41.8479 218.636 41.0925 218.007 40.6221 217.18C40.1518 216.353 39.9984 215.383 40.1907 214.451C40.7895 212.484 41.9034 211.88 43.4903 213.07C44.9455 214.158 46.197 213.925 47.4606 213.124C49.2571 211.987 50.9518 210.696 52.6884 209.47L52.6405 208.902ZM55.3472 144.73C56.4251 145.567 57.3473 146.374 58.3414 147.038C60.3954 148.384 62.5332 149.55 65.1262 148.802C65.6891 148.641 66.4975 147.959 66.4975 147.511C66.4868 147.134 66.3914 146.765 66.2183 146.431C66.0451 146.097 65.7988 145.805 65.4975 145.579C63.8279 144.722 62.0842 144.018 60.2876 143.474C59.4292 143.198 58.5102 143.169 57.6363 143.391C56.7623 143.614 55.9688 144.078 55.3472 144.73V144.73ZM37.6277 98.6838C37.6852 98.523 37.7254 98.3567 37.7475 98.1874C36.3821 94.3423 33.1843 92.0399 30.28 89.5283C29.3758 88.745 28.0583 89.4207 28.2739 90.4253C28.5007 91.7548 28.9914 93.0255 29.7171 94.1629C31.6214 96.812 34.8132 97.3083 37.6277 98.6778V98.6838ZM64.5274 82.5018L65.0244 82.2267C64.8148 79.44 64.6232 76.6533 64.3776 73.8547C64.2944 73.4165 64.1277 72.9983 63.8866 72.6228C63.3956 71.7019 62.7488 70.9245 61.5631 71.1696C60.605 71.367 59.6828 72.9158 59.9762 74.052C60.3616 75.839 60.944 77.5778 61.7128 79.2367C62.3416 80.4865 63.5632 81.4254 64.5274 82.4898V82.5018ZM39.6338 83.3629L40.0111 83.028C38.9092 80.5643 38.4541 77.7656 36.1965 75.8879C35.1306 74.9989 34.0347 74.1457 32.9089 73.3284C32.5472 73.137 32.1601 72.9981 31.7591 72.9158C31.6354 73.3543 31.565 73.806 31.5495 74.2613C31.632 74.6492 31.782 75.0196 31.9927 75.3557C33.4239 78.3457 35.7833 80.5224 38.2924 82.5317C38.7194 82.8381 39.1677 83.1139 39.6338 83.3569V83.3629ZM47.9037 52.787C47.5425 53.133 47.2212 53.5181 46.9456 53.9352C46.4964 54.7963 46.1551 55.7292 45.7479 56.6023C44.1513 60.0939 43.2309 63.8558 43.0352 67.6893C43.0807 68.1743 43.1915 68.651 43.3645 69.1065H43.8436C45.1251 63.6707 48.3109 58.773 47.9037 52.7811V52.787ZM65.9646 138.493L66.0484 139.091C68.7851 139.689 71.5217 140.287 74.2644 140.885C74.6626 140.977 75.0793 140.95 75.4621 140.807C76.013 140.568 76.8095 140.263 76.9232 139.832C77.037 139.402 76.4681 138.732 76.037 138.343C73.7913 136.298 71.1984 137.093 68.6833 137.596C67.7564 137.826 66.8476 138.124 65.9646 138.487V138.493ZM45.9455 83.6021C47.7839 82.9742 49.5385 82.454 51.2272 81.7483C51.8261 81.4912 52.7722 80.6599 52.6824 80.331C52.4189 79.3563 52.0297 78.2859 50.5206 78.3457C49.4256 78.3629 48.3501 78.6377 47.3814 79.1479C46.4127 79.6581 45.5781 80.3892 44.9455 81.2819C44.6184 81.7983 44.3379 82.3426 44.1071 82.9084L45.9455 83.6021ZM68.4258 82.4061V82.8606C69.2043 83.1058 69.9827 83.5603 70.7612 83.5603C72.6503 83.5547 74.5368 83.4229 76.4082 83.1656C77.1315 83.0088 77.7896 82.6354 78.2946 82.0952C79.109 81.2819 78.7138 80.1696 77.5999 80.2234C74.3962 80.3909 71.2463 80.8035 68.4258 82.4061ZM70.354 99.5748C68.1743 98.7974 60.2936 102.17 59.6768 104.066C61.7308 105.322 69.0605 102.296 70.354 99.5748ZM76.6298 64.6933L76.9831 65.2913C77.452 65.0733 77.8795 64.7759 78.2467 64.4122C80.0951 61.7132 81.9035 58.9863 83.6721 56.2315C83.7965 55.8459 83.8373 55.4382 83.7919 55.0355C83.3807 55.0214 82.9715 55.099 82.5942 55.2628C81.4786 56.0947 80.4548 57.0429 79.5401 58.0913C78.1389 59.9033 76.5999 61.7511 76.6298 64.6933ZM41.2027 99.1921C42.9992 100.298 44.1131 100.388 45.6581 99.509C46.934 98.8481 48.1644 98.103 49.3409 97.2784C49.8559 96.8897 50.0475 96.0824 50.3889 95.4844C49.6283 95.3529 48.6882 94.8864 48.1492 95.1555C45.8018 96.3456 43.5621 97.7808 41.2027 99.1921ZM66.4436 123.519C63.4854 125.05 62.126 132.62 64.192 135.24C64.6531 131.395 66.2999 127.771 66.4436 123.519ZM75.6118 130.396C77.0854 130.22 78.5052 129.735 79.7777 128.972C81.0503 128.209 82.1468 127.187 82.9954 125.971C83.0905 125.84 83.1564 125.691 83.1884 125.533C83.2205 125.376 83.2179 125.213 83.1811 125.056C83.0542 124.914 82.9005 124.799 82.7289 124.717C82.5572 124.635 82.3711 124.587 82.181 124.577C80.2468 124.583 75.7795 127.854 75.6058 130.396H75.6118ZM53.1555 142.476C54.1316 138.798 55.4969 135.216 55.3652 131.365C53.1315 134.791 52.0716 138.439 53.1495 142.47L53.1555 142.476ZM57.6587 101.447L58.4013 101.303L56.3413 90.3595L55.7425 90.4612C56.0767 94.1695 56.7176 97.8438 57.6587 101.447V101.447Z" fill="black"/>
<path d="M128.457 302.748C127.477 302.748 126.681 302.576 126.068 302.233C125.456 301.89 125.15 301.407 125.15 300.782C125.15 300.427 125.254 300.139 125.462 299.918C125.683 299.698 125.964 299.587 126.307 299.587C126.503 299.587 126.675 299.643 126.822 299.753C126.981 299.863 127.061 299.949 127.061 300.01C127.061 300.022 126.987 300.102 126.84 300.249C126.705 300.396 126.638 300.604 126.638 300.874C126.638 301.241 126.803 301.535 127.134 301.756C127.477 301.964 127.967 302.068 128.604 302.068C129.18 302.068 129.627 301.946 129.946 301.701C130.276 301.443 130.442 301.088 130.442 300.635C130.442 300.329 130.35 300.077 130.166 299.881C129.982 299.685 129.75 299.532 129.468 299.422C129.198 299.312 128.819 299.183 128.329 299.036C127.728 298.865 127.238 298.693 126.859 298.522C126.479 298.35 126.154 298.093 125.885 297.75C125.615 297.407 125.48 296.96 125.48 296.408C125.48 295.894 125.64 295.453 125.958 295.085C126.277 294.718 126.687 294.442 127.189 294.258C127.704 294.075 128.243 293.983 128.806 293.983C129.529 293.983 130.154 294.136 130.681 294.442C131.22 294.748 131.489 295.177 131.489 295.729C131.489 296.059 131.385 296.341 131.177 296.574C130.981 296.807 130.717 296.923 130.387 296.923C130.191 296.923 130.013 296.868 129.854 296.758C129.707 296.647 129.633 296.562 129.633 296.5C129.633 296.488 129.682 296.439 129.78 296.353C129.878 296.268 129.964 296.17 130.038 296.059C130.123 295.937 130.166 295.796 130.166 295.637C130.142 295.306 129.976 295.049 129.67 294.865C129.364 294.681 129.002 294.589 128.586 294.589C128.12 294.589 127.71 294.699 127.355 294.92C127.012 295.128 126.84 295.422 126.84 295.802C126.84 296.145 126.914 296.421 127.061 296.629C127.208 296.825 127.428 296.984 127.722 297.107C128.016 297.229 128.482 297.395 129.119 297.603C129.768 297.811 130.276 298.007 130.644 298.191C131.011 298.362 131.299 298.601 131.508 298.907C131.728 299.201 131.838 299.594 131.838 300.084C131.838 300.586 131.691 301.045 131.397 301.462C131.103 301.866 130.699 302.184 130.185 302.417C129.67 302.638 129.094 302.748 128.457 302.748ZM135.685 302.748C134.95 302.748 134.356 302.54 133.903 302.123C133.45 301.707 133.223 301.186 133.223 300.561C133.223 299.79 133.48 299.214 133.995 298.834C134.509 298.442 135.122 298.191 135.832 298.081C136.543 297.958 137.462 297.866 138.589 297.805V296.353C138.589 295.753 138.436 295.3 138.129 294.993C137.835 294.675 137.358 294.516 136.696 294.516C136.316 294.516 135.986 294.632 135.704 294.865C135.422 295.098 135.281 295.41 135.281 295.802C135.281 295.998 135.324 296.163 135.41 296.298C135.508 296.421 135.606 296.525 135.704 296.611C135.814 296.696 135.869 296.745 135.869 296.758C135.869 296.831 135.79 296.929 135.63 297.052C135.483 297.162 135.3 297.217 135.079 297.217C134.712 297.217 134.418 297.082 134.197 296.813C133.989 296.543 133.885 296.225 133.885 295.857C133.885 295.22 134.166 294.748 134.73 294.442C135.306 294.136 135.998 293.983 136.806 293.983C137.811 293.983 138.626 294.173 139.25 294.552C139.887 294.932 140.206 295.637 140.206 296.666V300.947C140.218 301.204 140.298 301.449 140.445 301.682C140.592 301.915 140.831 302.031 141.161 302.031C141.259 302.031 141.327 302.05 141.364 302.086C141.413 302.123 141.437 302.203 141.437 302.325C141.437 302.472 141.321 302.576 141.088 302.638C140.867 302.711 140.647 302.748 140.426 302.748C139.961 302.748 139.55 302.613 139.195 302.344C138.84 302.074 138.638 301.713 138.589 301.26C138.332 301.737 137.933 302.105 137.394 302.362C136.868 302.619 136.298 302.748 135.685 302.748ZM136.273 301.756C136.69 301.756 137.076 301.652 137.431 301.443C137.786 301.235 138.068 300.953 138.276 300.598C138.485 300.231 138.589 299.826 138.589 299.385V298.338C137.303 298.436 136.396 298.644 135.869 298.963C135.342 299.281 135.079 299.796 135.079 300.506C135.079 301.339 135.477 301.756 136.273 301.756ZM146.093 302.711C145.775 302.025 145.328 300.929 144.752 299.422C144.703 299.299 144.531 298.858 144.237 298.099C143.956 297.339 143.686 296.702 143.429 296.188C143.221 295.71 143.025 295.386 142.841 295.214C142.657 295.03 142.388 294.914 142.032 294.865C141.996 294.853 141.928 294.84 141.83 294.828C141.732 294.816 141.671 294.785 141.646 294.736C141.622 294.687 141.61 294.601 141.61 294.479C141.61 294.332 141.646 294.24 141.72 294.203C141.806 294.167 141.904 294.148 142.014 294.148C142.136 294.136 142.216 294.13 142.253 294.13C143 294.093 143.588 294.203 144.017 294.461C144.446 294.706 144.801 295.141 145.083 295.765C145.095 295.79 145.334 296.378 145.799 297.529C146.363 298.963 146.767 299.937 147.012 300.451H147.067L148.886 295.637C148.948 295.428 148.978 295.281 148.978 295.196C148.978 295.061 148.917 294.969 148.795 294.92C148.672 294.871 148.47 294.846 148.188 294.846H148.078C147.98 294.846 147.906 294.828 147.857 294.791C147.821 294.755 147.796 294.663 147.784 294.516C147.784 294.43 147.802 294.35 147.839 294.277C147.888 294.191 147.955 294.148 148.041 294.148C148.739 294.185 149.334 294.203 149.824 294.203C150.02 294.203 150.399 294.191 150.963 294.167L151.349 294.148C151.434 294.148 151.502 294.191 151.551 294.277C151.6 294.35 151.624 294.43 151.624 294.516C151.612 294.663 151.581 294.755 151.532 294.791C151.483 294.828 151.41 294.846 151.312 294.846C150.859 294.846 150.51 294.92 150.265 295.067C150.02 295.214 149.811 295.502 149.64 295.931C149.358 296.641 148.831 297.946 148.06 299.845C147.288 301.743 146.89 302.699 146.865 302.711H146.093ZM156.099 302.748C155.18 302.748 154.396 302.552 153.747 302.16C153.11 301.768 152.626 301.235 152.295 300.561C151.964 299.888 151.799 299.14 151.799 298.319C151.799 297.597 151.964 296.905 152.295 296.243C152.638 295.569 153.122 295.024 153.747 294.608C154.372 294.191 155.088 293.983 155.897 293.983C156.987 293.983 157.826 294.265 158.414 294.828C159.002 295.379 159.339 296.127 159.425 297.07C159.425 297.474 159.315 297.75 159.094 297.897C158.874 298.044 158.555 298.117 158.139 298.117H153.673C153.673 299.257 153.906 300.163 154.372 300.837C154.849 301.498 155.584 301.829 156.577 301.829C157.103 301.829 157.551 301.719 157.918 301.498C158.286 301.266 158.635 300.88 158.966 300.341C159.027 300.28 159.088 300.249 159.149 300.249C159.235 300.249 159.309 300.273 159.37 300.322C159.492 300.396 159.554 300.506 159.554 300.653C159.554 300.727 159.541 300.782 159.517 300.819C159.137 301.431 158.653 301.909 158.065 302.252C157.489 302.583 156.834 302.748 156.099 302.748ZM156.669 297.419C157.293 297.419 157.624 297.162 157.661 296.647C157.661 296.084 157.508 295.606 157.201 295.214C156.895 294.822 156.46 294.626 155.897 294.626C155.272 294.626 154.758 294.877 154.353 295.379C153.949 295.869 153.722 296.549 153.673 297.419H156.669ZM169.396 302.748C168.563 302.748 167.821 302.552 167.172 302.16C166.523 301.756 166.015 301.229 165.647 300.58C165.292 299.918 165.114 299.22 165.114 298.485C165.114 297.566 165.329 296.77 165.757 296.096C166.186 295.41 166.731 294.889 167.393 294.534C168.054 294.167 168.722 293.983 169.396 293.983C170.229 293.983 170.97 294.185 171.619 294.589C172.268 294.981 172.771 295.508 173.126 296.17C173.493 296.819 173.677 297.511 173.677 298.246C173.677 299.165 173.457 299.967 173.016 300.653C172.587 301.327 172.042 301.848 171.38 302.215C170.719 302.57 170.057 302.748 169.396 302.748ZM169.396 302.068C170.229 302.068 170.835 301.713 171.215 301.002C171.607 300.292 171.803 299.373 171.803 298.246C171.803 297.192 171.601 296.335 171.196 295.673C170.804 295 170.204 294.663 169.396 294.663C168.55 294.663 167.938 295.012 167.558 295.71C167.178 296.408 166.988 297.321 166.988 298.448C166.988 299.502 167.184 300.371 167.576 301.057C167.968 301.731 168.575 302.068 169.396 302.068ZM178.838 302.748C178.005 302.748 177.343 302.497 176.853 301.995C176.363 301.492 176.118 300.831 176.118 300.01V296.611C176.118 296.292 176.106 296.059 176.082 295.912C176.069 295.765 175.996 295.637 175.861 295.526C175.726 295.416 175.5 295.361 175.181 295.361C175.034 295.361 174.924 295.343 174.85 295.306C174.777 295.257 174.74 295.153 174.74 294.993C174.74 294.92 174.765 294.853 174.814 294.791C174.863 294.718 174.936 294.675 175.034 294.663C175.806 294.552 176.468 294.393 177.019 294.185C177.19 294.124 177.331 294.087 177.441 294.075H177.497C177.693 294.075 177.791 294.191 177.791 294.424V299.992C177.791 300.555 177.968 300.99 178.323 301.296C178.679 301.59 179.089 301.737 179.555 301.737C180.13 301.737 180.62 301.596 181.025 301.315C181.429 301.033 181.698 300.751 181.833 300.469V296.611C181.833 296.292 181.821 296.059 181.796 295.912C181.784 295.765 181.711 295.637 181.576 295.526C181.441 295.416 181.215 295.361 180.896 295.361C180.749 295.361 180.639 295.343 180.565 295.306C180.492 295.257 180.455 295.153 180.455 294.993C180.455 294.92 180.479 294.853 180.528 294.791C180.577 294.718 180.651 294.675 180.749 294.663C181.521 294.552 182.182 294.393 182.734 294.185C182.905 294.124 183.046 294.087 183.156 294.075H183.211C183.407 294.075 183.505 294.191 183.505 294.424V300.782C183.505 301.505 183.989 301.866 184.957 301.866C185.165 301.866 185.269 301.982 185.269 302.215C185.269 302.387 185.165 302.491 184.957 302.527L181.999 302.73C181.913 302.73 181.864 302.699 181.852 302.638C181.839 302.589 181.833 302.497 181.833 302.362V301.333H181.796C181.441 301.664 181.153 301.921 180.933 302.105C180.712 302.276 180.424 302.423 180.069 302.546C179.726 302.681 179.316 302.748 178.838 302.748ZM186.275 302.583C186.189 302.583 186.115 302.546 186.054 302.472C186.005 302.399 185.981 302.313 185.981 302.215C185.993 302.056 186.03 301.964 186.091 301.939C186.152 301.903 186.262 301.884 186.422 301.884C186.74 301.884 186.967 301.829 187.101 301.719C187.236 301.609 187.31 301.48 187.322 301.333C187.346 301.186 187.359 300.953 187.359 300.635V296.427C187.359 296.108 187.346 295.876 187.322 295.729C187.31 295.582 187.236 295.453 187.101 295.343C186.967 295.232 186.74 295.177 186.422 295.177C186.275 295.177 186.164 295.159 186.091 295.122C186.017 295.073 185.981 294.969 185.981 294.81C185.981 294.736 186.005 294.669 186.054 294.608C186.103 294.534 186.177 294.491 186.275 294.479C187.071 294.356 187.726 294.197 188.241 294.001C188.449 293.94 188.59 293.903 188.663 293.891H188.719C188.915 293.891 189.013 294.007 189.013 294.24V295.379H189.068C189.496 294.951 189.931 294.614 190.372 294.369C190.813 294.111 191.211 293.983 191.567 293.983C191.971 293.983 192.29 294.136 192.522 294.442C192.767 294.736 192.89 295.079 192.89 295.471C192.89 295.814 192.786 296.121 192.577 296.39C192.369 296.66 192.081 296.794 191.714 296.794C191.542 296.794 191.389 296.758 191.254 296.684C191.132 296.611 191.064 296.549 191.052 296.5C191.064 296.476 191.126 296.402 191.236 296.28C191.346 296.145 191.401 295.992 191.401 295.82C191.401 295.6 191.34 295.422 191.218 295.288C191.107 295.153 190.954 295.085 190.758 295.085C190.55 295.085 190.287 295.19 189.968 295.398C189.65 295.594 189.337 295.845 189.031 296.151V300.635C189.031 300.953 189.043 301.186 189.068 301.333C189.092 301.48 189.172 301.609 189.307 301.719C189.441 301.829 189.668 301.884 189.986 301.884H190.097C190.195 301.884 190.268 301.903 190.317 301.939C190.366 301.976 190.397 302.068 190.409 302.215C190.409 302.313 190.385 302.399 190.336 302.472C190.287 302.546 190.213 302.583 190.115 302.583C189.405 302.546 188.761 302.527 188.186 302.527C187.634 302.527 186.997 302.546 186.275 302.583ZM201.884 302.748C201.198 302.748 200.561 302.564 199.973 302.197C199.385 301.817 198.913 301.296 198.558 300.635C198.203 299.961 198.025 299.201 198.025 298.356C198.025 297.597 198.209 296.88 198.576 296.206C198.944 295.533 199.452 294.993 200.101 294.589C200.751 294.185 201.473 293.983 202.27 293.983C202.65 293.983 203.029 294.032 203.409 294.13C203.789 294.216 204.12 294.338 204.401 294.497H204.456V291.686C204.456 291.367 204.444 291.135 204.42 290.988C204.407 290.841 204.334 290.712 204.199 290.602C204.064 290.491 203.838 290.436 203.519 290.436C203.372 290.436 203.262 290.418 203.189 290.381C203.115 290.332 203.078 290.228 203.078 290.069C203.078 289.995 203.103 289.928 203.152 289.867C203.201 289.793 203.274 289.75 203.372 289.738C204.144 289.628 204.806 289.469 205.357 289.26C205.528 289.199 205.669 289.162 205.779 289.15H205.835C206.031 289.15 206.129 289.266 206.129 289.499V300.837C206.129 301.56 206.606 301.921 207.562 301.921C207.77 301.921 207.874 302.019 207.874 302.215C207.874 302.387 207.77 302.491 207.562 302.527L204.64 302.73C204.554 302.73 204.505 302.699 204.493 302.638C204.481 302.589 204.475 302.497 204.475 302.362V301.627H204.42C204.101 301.958 203.709 302.227 203.244 302.436C202.79 302.644 202.337 302.748 201.884 302.748ZM202.509 301.829C202.937 301.829 203.299 301.75 203.593 301.59C203.899 301.419 204.187 301.192 204.456 300.91V296.059C204.346 295.704 204.113 295.379 203.758 295.085C203.415 294.791 202.98 294.644 202.454 294.644C201.976 294.644 201.541 294.797 201.149 295.104C200.769 295.398 200.469 295.833 200.248 296.408C200.028 296.984 199.918 297.664 199.918 298.448C199.918 299.391 200.138 300.194 200.579 300.855C201.032 301.505 201.676 301.829 202.509 301.829ZM211.018 302.748C210.283 302.748 209.689 302.54 209.236 302.123C208.782 301.707 208.556 301.186 208.556 300.561C208.556 299.79 208.813 299.214 209.327 298.834C209.842 298.442 210.454 298.191 211.165 298.081C211.875 297.958 212.794 297.866 213.921 297.805V296.353C213.921 295.753 213.768 295.3 213.462 294.993C213.168 294.675 212.69 294.516 212.029 294.516C211.649 294.516 211.318 294.632 211.036 294.865C210.755 295.098 210.614 295.41 210.614 295.802C210.614 295.998 210.657 296.163 210.742 296.298C210.84 296.421 210.938 296.525 211.036 296.611C211.147 296.696 211.202 296.745 211.202 296.758C211.202 296.831 211.122 296.929 210.963 297.052C210.816 297.162 210.632 297.217 210.412 297.217C210.044 297.217 209.75 297.082 209.53 296.813C209.321 296.543 209.217 296.225 209.217 295.857C209.217 295.22 209.499 294.748 210.062 294.442C210.638 294.136 211.33 293.983 212.139 293.983C213.143 293.983 213.958 294.173 214.583 294.552C215.22 294.932 215.538 295.637 215.538 296.666V300.947C215.551 301.204 215.63 301.449 215.777 301.682C215.924 301.915 216.163 302.031 216.494 302.031C216.592 302.031 216.659 302.05 216.696 302.086C216.745 302.123 216.769 302.203 216.769 302.325C216.769 302.472 216.653 302.576 216.42 302.638C216.2 302.711 215.979 302.748 215.759 302.748C215.293 302.748 214.883 302.613 214.528 302.344C214.172 302.074 213.97 301.713 213.921 301.26C213.664 301.737 213.266 302.105 212.727 302.362C212.2 302.619 211.63 302.748 211.018 302.748ZM211.606 301.756C212.022 301.756 212.408 301.652 212.764 301.443C213.119 301.235 213.401 300.953 213.609 300.598C213.817 300.231 213.921 299.826 213.921 299.385V298.338C212.635 298.436 211.728 298.644 211.202 298.963C210.675 299.281 210.412 299.796 210.412 300.506C210.412 301.339 210.81 301.756 211.606 301.756ZM218.56 306.533C218.033 306.533 217.561 306.362 217.145 306.019C216.74 305.688 216.538 305.29 216.538 304.824C216.538 304.273 216.691 303.918 216.998 303.759C217.304 303.612 217.543 303.538 217.714 303.538C217.923 303.538 218.094 303.581 218.229 303.667C218.364 303.753 218.431 303.832 218.431 303.906C218.431 303.93 218.382 303.991 218.284 304.089C218.186 304.187 218.137 304.359 218.137 304.604C218.137 304.849 218.211 305.063 218.358 305.247C218.517 305.431 218.737 305.523 219.019 305.523C219.791 305.523 220.544 304.733 221.279 303.152C221.328 302.981 221.353 302.852 221.353 302.766C221.353 302.644 221.322 302.491 221.261 302.307C221.016 301.756 220.605 300.733 220.03 299.238C219.527 297.903 219.117 296.886 218.799 296.188C218.59 295.71 218.394 295.386 218.211 295.214C218.027 295.03 217.757 294.914 217.402 294.865C217.365 294.853 217.298 294.84 217.2 294.828C217.102 294.816 217.041 294.785 217.016 294.736C216.992 294.687 216.979 294.601 216.979 294.479C216.979 294.332 217.016 294.24 217.09 294.203C217.175 294.167 217.273 294.148 217.384 294.148C217.506 294.136 217.586 294.13 217.623 294.13C218.37 294.093 218.958 294.203 219.387 294.461C219.815 294.706 220.171 295.141 220.452 295.765C220.722 296.39 220.961 296.984 221.169 297.548C221.659 298.871 222.057 299.839 222.363 300.451H222.419L224.219 295.637C224.281 295.428 224.311 295.281 224.311 295.196C224.311 295.061 224.25 294.969 224.127 294.92C224.005 294.871 223.803 294.846 223.521 294.846H223.411C223.313 294.846 223.239 294.828 223.19 294.791C223.154 294.755 223.129 294.663 223.117 294.516C223.117 294.43 223.135 294.35 223.172 294.277C223.221 294.191 223.288 294.148 223.374 294.148C224.072 294.185 224.666 294.203 225.156 294.203C225.352 294.203 225.732 294.191 226.296 294.167L226.682 294.148C226.767 294.148 226.835 294.191 226.884 294.277C226.933 294.35 226.957 294.43 226.957 294.516C226.945 294.663 226.914 294.755 226.865 294.791C226.816 294.828 226.743 294.846 226.645 294.846C226.192 294.846 225.843 294.92 225.597 295.067C225.352 295.214 225.144 295.502 224.973 295.931C224.691 296.629 224.238 297.75 223.613 299.293C222.988 300.837 222.523 301.976 222.216 302.711C221.775 303.765 221.261 304.665 220.673 305.412C220.085 306.16 219.38 306.533 218.56 306.533Z" fill="black"/>
<line x1="235.451" y1="297.25" x2="292.451" y2="297.25" stroke="black" stroke-opacity="0.55" stroke-width="1.5"/>
<line x1="58.4514" y1="297.25" x2="114.451" y2="297.25" stroke="black" stroke-opacity="0.55" stroke-width="1.5"/>
<path d="M189.597 77.9314C188.489 79.5547 187.252 81.5001 185.886 83.7676C184.521 86.0351 183.065 88.5731 181.519 91.3817C180.205 93.7265 178.904 96.2259 177.615 98.8799C176.353 101.508 175.142 104.123 173.982 106.726C172.823 109.303 171.753 111.789 170.774 114.185C169.795 116.556 168.945 118.656 168.223 120.486C167.502 122.289 166.935 123.745 166.523 124.853C166.11 125.935 165.904 126.489 165.904 126.515C165.646 127.159 165.183 127.481 164.513 127.481C164.178 127.481 163.881 127.378 163.624 127.172C163.366 126.94 163.199 126.657 163.121 126.322C163.121 126.296 162.992 125.755 162.735 124.698C162.503 123.616 162.181 122.186 161.769 120.408C161.356 118.605 160.88 116.543 160.338 114.224C159.823 111.879 159.269 109.444 158.677 106.919C158.11 104.368 157.53 101.792 156.937 99.1891C156.345 96.5866 155.791 94.113 155.275 91.7682C153.549 96.6382 151.81 100.954 150.057 104.716C148.331 108.452 146.553 111.712 144.724 114.495C142.894 117.252 141 119.571 139.042 121.452C137.11 123.333 135.074 124.853 132.935 126.013C130.822 127.146 128.594 127.958 126.249 128.447C123.93 128.937 121.469 129.182 118.867 129.182C117.527 129.182 116.097 129.027 114.576 128.718C113.056 128.435 111.549 127.984 110.054 127.365C108.56 126.747 107.13 125.974 105.764 125.046C104.398 124.119 103.187 123.024 102.131 121.761C101.074 120.473 100.237 119.03 99.6186 117.432C99.0002 115.809 98.691 114.005 98.691 112.021C98.691 109.934 99.129 108.027 100.005 106.301C100.881 104.549 102.066 103.054 103.561 101.817C105.055 100.555 106.782 99.5756 108.74 98.8799C110.724 98.1842 112.811 97.8363 115.001 97.8363C116.599 97.8363 118.029 97.9781 119.292 98.2615C120.58 98.5192 121.714 98.8541 122.693 99.2664C123.672 99.6787 124.51 100.13 125.205 100.619C125.901 101.109 126.481 101.56 126.944 101.972C127.408 102.384 127.743 102.745 127.949 103.054C128.156 103.338 128.271 103.479 128.297 103.479C128.452 103.763 128.529 104.033 128.529 104.291C128.529 104.652 128.387 104.987 128.104 105.296C127.846 105.605 127.498 105.76 127.06 105.76C126.545 105.76 126.133 105.541 125.824 105.103C125.798 105.077 125.592 104.845 125.205 104.407C124.819 103.943 124.187 103.441 123.311 102.9C122.435 102.358 121.302 101.869 119.91 101.431C118.544 100.993 116.87 100.774 114.886 100.774C113.082 100.774 111.368 101.057 109.745 101.624C108.147 102.165 106.743 102.938 105.532 103.943C104.347 104.948 103.393 106.146 102.672 107.538C101.976 108.903 101.628 110.411 101.628 112.06C101.628 113.683 101.899 115.165 102.44 116.505C102.981 117.844 103.703 119.043 104.605 120.099C105.506 121.155 106.55 122.07 107.735 122.843C108.92 123.616 110.157 124.26 111.446 124.776C112.734 125.265 114.022 125.639 115.311 125.897C116.625 126.128 117.862 126.244 119.021 126.244C120.979 126.244 122.886 126.103 124.741 125.819C126.622 125.51 128.465 124.943 130.268 124.119C132.098 123.294 133.889 122.16 135.641 120.717C137.393 119.274 139.132 117.393 140.859 115.074C142.585 112.755 144.286 109.96 145.961 106.687C147.661 103.415 149.362 99.5498 151.062 95.0922C151.578 93.7523 152.08 92.3093 152.57 90.7633C153.059 89.2173 153.562 87.6584 154.077 86.0866C153.639 83.8191 153.317 81.8866 153.111 80.289C152.93 78.6915 152.84 77.3645 152.84 76.308C152.84 75.1743 152.93 74.2724 153.111 73.6025C153.291 72.9326 153.523 72.4301 153.807 72.0951C154.09 71.7344 154.399 71.5154 154.734 71.4381C155.069 71.335 155.391 71.2835 155.7 71.2835C155.958 71.2835 156.242 71.335 156.551 71.4381C156.886 71.5411 157.182 71.7731 157.44 72.1338C157.723 72.4688 157.955 72.9712 158.135 73.6412C158.316 74.3111 158.406 75.2129 158.406 76.3467C158.406 77.5835 158.29 79.0136 158.058 80.6369C157.826 82.2602 157.478 84.051 157.015 86.0093C157.35 87.5811 157.736 89.3332 158.174 91.2658C158.612 93.1983 159.063 95.2081 159.527 97.2952C159.991 99.3566 160.467 101.469 160.957 103.634C161.446 105.798 161.923 107.911 162.387 109.973C162.851 112.034 163.289 114.005 163.701 115.886C164.139 117.767 164.538 119.468 164.899 120.988C165.595 119.236 166.445 117.123 167.45 114.649C168.455 112.15 169.576 109.509 170.813 106.726C172.05 103.917 173.351 101.07 174.716 98.1842C176.108 95.2725 177.525 92.5283 178.968 89.9516C181.004 86.2927 182.872 83.1621 184.572 80.5596C186.273 77.9314 187.742 75.7669 188.978 74.0663C190.215 72.3657 191.182 71.116 191.877 70.3172C192.599 69.4927 192.985 69.0418 193.037 68.9645C193.32 68.681 193.668 68.5393 194.08 68.5393C194.518 68.5393 194.866 68.6939 195.124 69.0031C195.407 69.2865 195.549 69.6215 195.549 70.008C195.549 70.1884 195.51 70.3688 195.433 70.5491C195.433 70.5749 195.278 70.9614 194.969 71.7086C194.686 72.4301 194.312 73.435 193.848 74.7234C193.41 75.986 192.921 77.4804 192.38 79.2068C191.839 80.9074 191.31 82.7498 190.795 84.7338C190.28 86.6921 189.816 88.7535 189.404 90.9179C189.017 93.0566 188.734 95.1952 188.553 97.3339C188.476 98.313 188.412 99.3437 188.36 100.426C188.309 101.482 188.283 102.552 188.283 103.634C188.283 105.335 188.36 107.048 188.515 108.774C188.669 110.501 188.927 112.163 189.288 113.76C189.648 115.358 190.138 116.865 190.756 118.282C191.375 119.674 192.135 120.898 193.037 121.954C193.939 123.011 195.008 123.861 196.245 124.505C197.507 125.149 198.963 125.497 200.612 125.549C201.025 125.574 201.347 125.755 201.579 126.09C201.836 126.399 201.965 126.734 201.965 127.095C201.965 127.455 201.823 127.778 201.54 128.061C201.256 128.344 200.921 128.486 200.535 128.486C200.123 128.486 199.71 128.447 199.298 128.37C197.443 128.113 195.807 127.584 194.39 126.786C192.972 125.961 191.748 124.956 190.718 123.771C189.687 122.56 188.824 121.194 188.128 119.674C187.458 118.128 186.917 116.479 186.505 114.727C186.093 112.974 185.796 111.158 185.616 109.277C185.461 107.37 185.384 105.45 185.384 103.518C185.384 101.225 185.5 98.9314 185.732 96.6382C185.964 94.3449 186.273 92.1161 186.659 89.9516C187.046 87.7615 187.497 85.6486 188.012 83.613C188.528 81.5774 189.056 79.6835 189.597 77.9314Z" fill="black"/>
<path d="M184.285 138.841C184.285 138.996 184.23 139.134 184.12 139.255C184.009 139.366 183.849 139.421 183.639 139.421C183.485 139.421 183.319 139.415 183.142 139.404C182.977 139.393 182.734 139.388 182.413 139.388C182.248 139.388 181.999 139.399 181.668 139.421C181.348 139.432 180.978 139.454 180.558 139.487C180.15 139.52 179.708 139.559 179.233 139.603C178.758 139.636 178.278 139.675 177.792 139.719C177.803 139.774 177.808 139.862 177.808 139.984C177.808 141.055 177.571 142.005 177.096 142.833C176.632 143.661 176.008 144.362 175.224 144.937C174.451 145.5 173.551 145.931 172.524 146.229C171.497 146.516 170.432 146.659 169.327 146.659C168.532 146.659 167.781 146.549 167.075 146.328C166.379 146.107 165.766 145.787 165.236 145.367C164.717 144.948 164.303 144.434 163.994 143.827C163.696 143.22 163.546 142.524 163.546 141.74C163.546 141.11 163.673 140.531 163.927 140C164.181 139.47 164.524 139.001 164.954 138.593C165.396 138.173 165.915 137.82 166.511 137.532C167.108 137.245 167.754 137.024 168.45 136.87C168.251 136.781 168.041 136.66 167.82 136.505C167.61 136.34 167.417 136.146 167.24 135.926C167.064 135.694 166.915 135.434 166.793 135.147C166.683 134.849 166.627 134.523 166.627 134.17C166.627 133.331 166.815 132.602 167.191 131.983C167.577 131.365 168.069 130.851 168.665 130.443C169.261 130.034 169.918 129.731 170.636 129.532C171.365 129.333 172.072 129.234 172.756 129.234C173.353 129.234 173.905 129.305 174.413 129.449C174.932 129.581 175.373 129.775 175.738 130.029C176.113 130.272 176.406 130.575 176.616 130.94C176.837 131.293 176.947 131.685 176.947 132.116C176.947 132.48 176.875 132.828 176.732 133.159C176.588 133.48 176.389 133.761 176.135 134.004C175.893 134.247 175.6 134.44 175.258 134.584C174.926 134.716 174.562 134.783 174.164 134.783C173.811 134.783 173.496 134.733 173.22 134.634C172.955 134.523 172.729 134.396 172.541 134.253C172.353 134.098 172.21 133.943 172.11 133.789C172.011 133.623 171.961 133.485 171.961 133.375C171.961 133.198 172.016 133.049 172.127 132.927C172.248 132.806 172.397 132.745 172.574 132.745C172.696 132.745 172.789 132.778 172.856 132.845C172.922 132.9 172.988 132.966 173.054 133.043C173.165 133.176 173.297 133.308 173.452 133.441C173.618 133.573 173.877 133.64 174.231 133.64C174.473 133.64 174.683 133.601 174.86 133.524C175.037 133.435 175.186 133.325 175.307 133.192C175.429 133.049 175.517 132.894 175.572 132.729C175.639 132.552 175.672 132.381 175.672 132.215C175.672 132.005 175.611 131.796 175.489 131.586C175.379 131.376 175.208 131.188 174.976 131.023C174.744 130.857 174.446 130.724 174.081 130.625C173.717 130.526 173.286 130.476 172.789 130.476C172.292 130.476 171.757 130.548 171.183 130.691C170.619 130.824 170.089 131.034 169.592 131.321C169.107 131.597 168.698 131.961 168.367 132.414C168.046 132.856 167.886 133.38 167.886 133.988C167.886 134.385 167.953 134.722 168.085 134.998C168.229 135.263 168.422 135.484 168.665 135.661C168.908 135.837 169.195 135.981 169.526 136.091C169.869 136.191 170.244 136.279 170.653 136.356C170.807 136.389 170.951 136.423 171.083 136.456C171.227 136.478 171.348 136.516 171.448 136.572C171.558 136.616 171.641 136.682 171.696 136.77C171.762 136.848 171.796 136.958 171.796 137.102C171.796 137.278 171.735 137.422 171.613 137.532C171.503 137.632 171.348 137.681 171.15 137.681C170.951 137.681 170.658 137.693 170.272 137.715C169.885 137.737 169.454 137.797 168.98 137.897C168.516 137.985 168.035 138.118 167.538 138.294C167.042 138.46 166.589 138.697 166.18 139.007C165.783 139.305 165.451 139.675 165.186 140.116C164.932 140.558 164.805 141.094 164.805 141.723C164.805 142.353 164.921 142.905 165.153 143.38C165.396 143.843 165.722 144.23 166.131 144.539C166.539 144.837 167.014 145.064 167.555 145.218C168.107 145.362 168.698 145.434 169.327 145.434C170.211 145.434 171.083 145.329 171.945 145.119C172.817 144.898 173.596 144.567 174.28 144.125C174.965 143.683 175.517 143.126 175.937 142.452C176.367 141.778 176.583 140.989 176.583 140.083C176.583 140.039 176.577 140 176.566 139.967C176.566 139.923 176.566 139.874 176.566 139.818C175.97 139.874 175.429 139.929 174.943 139.984C174.468 140.028 174.093 140.061 173.816 140.083C173.728 140.094 173.651 140.105 173.585 140.116C173.529 140.116 173.485 140.116 173.452 140.116C173.264 140.116 173.104 140.061 172.972 139.951C172.839 139.84 172.773 139.68 172.773 139.47C172.773 139.316 172.823 139.183 172.922 139.073C173.032 138.951 173.176 138.88 173.353 138.858C173.673 138.824 174.087 138.78 174.595 138.725C175.103 138.67 175.655 138.62 176.251 138.576C176.859 138.521 177.483 138.471 178.123 138.427C178.764 138.372 179.371 138.322 179.945 138.278C180.531 138.234 181.061 138.2 181.535 138.178C182.021 138.156 182.408 138.145 182.695 138.145C183.313 138.145 183.733 138.2 183.954 138.311C184.175 138.421 184.285 138.598 184.285 138.841Z" fill="black"/>
<path d="M250.814 151.351C250.814 151.737 250.672 152.085 250.389 152.394C250.131 152.703 249.796 152.858 249.384 152.858C248.997 152.858 248.662 152.729 248.379 152.472C248.095 152.214 247.928 151.866 247.876 151.428C247.85 151.325 247.786 150.835 247.683 149.959C247.606 149.083 247.348 148.014 246.91 146.751C246.498 145.463 245.854 144.097 244.977 142.654C244.101 141.186 242.89 139.833 241.344 138.596C239.824 137.359 237.892 136.329 235.547 135.504C233.202 134.679 230.355 134.267 227.005 134.267C224.042 134.267 221.053 134.718 218.038 135.62C215.049 136.496 212.176 137.746 209.419 139.369C206.662 140.967 204.085 142.886 201.689 145.128C199.293 147.344 197.205 149.792 195.428 152.472C193.675 155.151 192.284 158.011 191.253 161.052C190.248 164.092 189.746 167.223 189.746 170.444C189.746 173.356 190.145 175.855 190.944 177.942C191.743 180.004 192.851 181.691 194.268 183.005C195.685 184.32 197.347 185.286 199.254 185.904C201.186 186.497 203.261 186.793 205.477 186.793C209.316 186.793 212.898 186.136 216.222 184.822C219.571 183.482 222.663 181.691 225.498 179.45C228.358 177.182 230.96 174.554 233.305 171.565C235.65 168.55 237.75 165.381 239.605 162.057C239.811 158.913 240.172 156.517 240.687 154.868C241.228 153.193 242.027 152.356 243.084 152.356C243.676 152.356 244.166 152.6 244.552 153.09C244.965 153.58 245.171 154.211 245.171 154.984C245.171 155.834 244.952 156.916 244.514 158.23C244.076 159.545 243.406 161.065 242.504 162.791C242.427 164.002 242.388 165.304 242.388 166.695C242.388 168.731 242.465 170.959 242.62 173.381C242.8 175.804 243.071 178.38 243.431 181.112C244.514 180.57 245.351 180.184 245.944 179.952C246.562 179.694 247.013 179.527 247.296 179.45C247.58 179.347 247.76 179.308 247.838 179.334C247.915 179.334 247.979 179.334 248.031 179.334C248.417 179.334 248.752 179.475 249.036 179.759C249.345 180.016 249.5 180.364 249.5 180.802C249.5 181.112 249.409 181.395 249.229 181.653C249.049 181.885 248.804 182.052 248.495 182.155C248.443 182.181 247.992 182.361 247.142 182.696C246.317 183.005 245.209 183.508 243.818 184.204C243.947 185.595 244.05 186.999 244.127 188.416C244.204 189.834 244.243 191.264 244.243 192.707C244.243 196.108 243.998 199.355 243.509 202.447C243.019 205.539 242.207 208.257 241.074 210.602C239.966 212.947 238.484 214.802 236.629 216.167C234.774 217.559 232.493 218.255 229.788 218.255C228.448 218.255 227.211 218.023 226.077 217.559C224.944 217.095 223.964 216.451 223.14 215.626C222.315 214.802 221.671 213.81 221.207 212.65C220.744 211.517 220.512 210.267 220.512 208.901C220.512 206.969 220.834 205.062 221.478 203.181C222.148 201.3 223.024 199.483 224.106 197.731C225.214 195.979 226.477 194.317 227.894 192.745C229.311 191.199 230.767 189.769 232.261 188.455C233.756 187.141 235.225 185.981 236.668 184.977C238.136 183.972 239.476 183.16 240.687 182.542C240.352 179.965 240.082 177.44 239.876 174.966C239.669 172.467 239.541 170.045 239.489 167.7C237.247 171.281 234.774 174.438 232.068 177.169C229.388 179.9 226.58 182.194 223.642 184.049C220.705 185.904 217.677 187.308 214.56 188.262C211.467 189.189 208.388 189.653 205.322 189.653C202.539 189.653 200.014 189.241 197.747 188.416C195.479 187.566 193.534 186.329 191.91 184.706C190.287 183.083 189.037 181.073 188.161 178.677C187.285 176.28 186.847 173.523 186.847 170.405C186.847 167.107 187.363 163.861 188.393 160.665C189.424 157.445 190.854 154.391 192.683 151.505C194.513 148.594 196.677 145.914 199.177 143.466C201.702 141.018 204.446 138.905 207.409 137.127C210.398 135.324 213.542 133.919 216.84 132.914C220.164 131.884 223.552 131.368 227.005 131.368C230.329 131.368 233.215 131.755 235.663 132.528C238.111 133.275 240.185 134.241 241.885 135.427C243.612 136.586 245.003 137.862 246.06 139.253C247.142 140.619 247.992 141.92 248.611 143.157C249.126 144.213 249.525 145.231 249.809 146.21C250.118 147.189 250.337 148.053 250.466 148.8C250.62 149.547 250.711 150.153 250.736 150.616C250.788 151.08 250.814 151.325 250.814 151.351ZM241.035 185.75C239.747 186.471 238.407 187.334 237.015 188.339C235.65 189.318 234.31 190.401 232.996 191.586C231.707 192.771 230.484 194.047 229.324 195.412C228.164 196.778 227.147 198.195 226.271 199.664C225.395 201.132 224.699 202.64 224.183 204.186C223.694 205.758 223.449 207.329 223.449 208.901C223.449 209.88 223.604 210.756 223.913 211.529C224.222 212.328 224.66 212.998 225.227 213.539C225.794 214.106 226.464 214.544 227.237 214.853C228.01 215.163 228.86 215.317 229.788 215.317C233.421 215.317 236.255 213.385 238.291 209.52C240.327 205.68 241.344 200.063 241.344 192.668C241.344 191.56 241.319 190.426 241.267 189.267C241.215 188.133 241.138 186.961 241.035 185.75Z" fill="black"/>
</svg>
