<svg width="189" height="165" viewBox="0 0 189 165" fill="none" xmlns="http://www.w3.org/2000/svg">
<path fill-rule="evenodd" clip-rule="evenodd" d="M134.072 1.0615C132.598 1.597 131.084 2.345 130.706 2.723C130.327 3.1015 129.837 3.487 129.615 3.5805C128.549 4.03 125.942 8.033 125.268 10.256C124.287 13.4885 124.307 15.3115 125.362 18.855C126.182 21.612 126.819 22.3515 138.707 34.375C145.573 41.319 151.367 47 151.583 47C152.148 47 174.629 24.424 176.055 22.4255C178.644 18.7955 179.68 13.5645 178.324 10.9665C177.956 10.261 177.507 9.094 177.326 8.3735C177.145 7.653 175.924 5.9625 174.613 4.6165C172.81 2.7655 171.448 1.9055 169.018 1.0845C167.252 0.487999 165.218 0 164.5 0C161.863 0 157.227 2.005 154.648 4.2605C153.24 5.4925 151.828 6.5 151.509 6.5C151.19 6.5 149.735 5.4475 148.275 4.1605C145.465 1.6825 141.577 0.0584999 138.5 0.0764999C137.538 0.0819999 135.545 0.525501 134.072 1.0615ZM60.5 10.7705C53.4125 12.1875 48.407 14.0545 43.25 17.2055C39.978 19.2045 38.9345 20.068 34.7375 24.25C25.81 33.146 21.2695 44.209 21.2555 57.101C21.2495 62.365 21.7755 63.7325 23.389 62.649C28.3995 59.2845 33.2445 56.6075 35.5 55.9585C38.0495 55.224 38.501 55.231 41.6925 56.051C43.586 56.537 45.3745 57.1745 45.6675 57.4675C45.9605 57.7605 46.5485 58.0075 46.975 58.017C47.401 58.0265 48.65 58.4685 49.75 59C50.85 59.5315 52.0235 59.9735 52.358 59.983C52.6925 59.9925 53.705 60.322 54.608 60.715C55.511 61.1085 57.6 61.942 59.25 62.5675C60.9 63.193 62.475 63.86 62.75 64.0505C63.025 64.2405 64.0375 64.6305 65 64.9175C67.283 65.5975 70.9855 66.907 72.25 67.481C75.534 68.9725 78.2185 70 78.831 70C79.2185 70 80.124 70.3855 80.8435 70.857C82.5045 71.9455 86.732 71.9815 88.75 70.9245C91.287 69.5955 99.1245 67.082 104.75 65.7935C112.149 64.0985 118.971 65.4875 122.992 69.5085C127.359 73.8755 127.301 81.949 122.85 89.2325C121.129 92.0495 116.266 97.8035 111.909 102.177C107.057 107.048 107 107.132 107 109.516C107 110.842 106.771 113.575 106.491 115.589C106.21 117.603 105.758 123.637 105.485 129C105.212 134.363 104.78 140.438 104.525 142.5C104.27 144.562 104.048 147.986 104.031 150.108C104.01 152.65 103.71 154.574 103.15 155.747C102.314 157.501 102.32 157.547 103.539 158.767L104.778 160.005L141.303 123.378C175.771 88.8125 180.652 83.592 182.559 79.25C182.8 78.7 183.19 77.9125 183.426 77.5C185.45 73.953 186.973 68.602 187.757 62.2815C188.79 53.954 187.628 45.8475 184.25 37.814C183.162 35.2275 181.102 32.008 180.35 31.7195C180.016 31.591 173.553 37.677 165.986 45.243C158.42 52.8095 152.002 59 151.722 59C151.443 59 144.105 51.8565 135.415 43.125C119.168 26.8 118.496 25.9785 116.699 20.255C115.811 17.426 114.89 17.846 108.219 24.125C106.539 25.706 104.938 27 104.66 27C104.382 27 102.894 25.778 101.352 24.284C94.078 17.239 86.0955 12.97 76.5 10.992C71.915 10.047 64.626 9.946 60.5 10.7705ZM36.715 64.6785C35.912 64.946 34.1875 65.9155 32.8825 66.8325C31.578 67.7495 30.3865 68.5 30.235 68.5C30.0835 68.5 29.2935 68.9925 28.48 69.594C26.303 71.2035 26.542 72.612 29.375 74.868C30.681 75.908 32.3125 77.2405 33 77.8285C33.6875 78.417 36.05 80.4055 38.25 82.247C40.45 84.089 42.8145 86.081 43.505 86.673C44.195 87.2655 45.993 88.7625 47.5 90C55.8155 96.828 56.7095 97.715 56.198 98.627C55.9515 99.0665 53.5 101.145 50.75 103.246C44.688 107.878 35.8535 116.025 33.484 119.169C32.5305 120.434 31.357 121.476 30.8765 121.484C30.116 121.498 28.0455 120.653 21.75 117.758C17.699 115.895 11.753 113.5 11.179 113.5C10.824 113.5 9.795 113.813 8.892 114.196C7.989 114.579 5.619 115.392 3.625 116.003C1.6315 116.613 0 117.31 0 117.55C0 118.035 3.821 121.11 14.225 129C18.033 131.888 21.6795 134.7 22.3285 135.25C23.5325 136.27 23.9655 137.736 26.466 149.25C27.063 152 27.859 155.487 28.2345 157C28.61 158.513 29.073 160.812 29.263 162.109C29.7515 165.441 30.9005 165.672 33.3525 162.932C34.396 161.766 36.091 159.898 37.119 158.781L38.9875 156.75L39.0435 150.25C39.074 146.675 39.2455 141.847 39.4245 139.521L39.75 135.294L42.25 134.398C43.625 133.906 45.0435 133.503 45.4025 133.502C45.7615 133.501 46.999 133.09 48.1525 132.589C49.306 132.087 51.2625 131.275 52.5 130.784C55.532 129.58 59.049 128.046 60.1585 127.443C60.6585 127.171 62.864 126.005 65.0595 124.85C67.255 123.695 69.5435 122.478 70.145 122.145C70.8185 121.772 71.417 121.717 71.7035 122.003C72.357 122.657 73.5195 125.882 73.9555 128.25C74.1575 129.35 74.5805 131.038 74.8955 132C76.289 136.262 77.5015 140.752 77.5175 141.709C77.5275 142.281 77.857 143.312 78.25 144C78.643 144.688 78.9725 145.88 78.9825 146.65C78.992 147.419 79.311 148.657 79.691 149.4C80.071 150.142 80.5325 151.65 80.717 152.75C80.9015 153.85 81.4595 155.987 81.957 157.5C83.158 161.152 83.7225 161.056 91.105 155.939C91.85 155.422 92.6515 155 92.8855 155C93.12 155 93.7685 154.381 94.3265 153.625C95.185 152.462 95.3955 151.152 95.6925 145.124C95.886 141.204 96.256 136.141 96.5155 133.874C96.7745 131.606 97.115 126.375 97.2715 122.25C97.4285 118.125 97.891 111.969 98.299 108.57L99.041 102.389L101.896 99.8195C112.443 90.325 117.713 82.965 117.403 78.164C117.269 76.1035 117.044 75.68 115.646 74.8665C114.764 74.353 112.964 73.9015 111.646 73.8635C108.509 73.772 102.136 75.0895 97.75 76.736C95.825 77.459 93.68 78.234 92.9835 78.459C92.2875 78.684 90.4655 79.46 88.9355 80.184C85.754 81.689 84.691 81.7865 82.392 80.784C80.905 80.1355 73.9295 77.421 69.5 75.7665C64.021 73.72 54.2305 69.9235 52.608 69.216C51.705 68.822 50.6925 68.4925 50.358 68.483C50.0235 68.4735 48.85 68.0315 47.75 67.5C46.65 66.9685 45.401 66.5265 44.975 66.517C44.5485 66.5075 43.9735 66.2735 43.697 65.997C42.7065 65.0065 38.253 64.1655 36.715 64.6785Z" fill="black"/>
</svg>
