<svg width="254" height="203" viewBox="0 0 254 203" fill="none" xmlns="http://www.w3.org/2000/svg">
<path fill-rule="evenodd" clip-rule="evenodd" d="M119.735 1.22693C118.307 1.75093 90.8569 24.1029 58.7349 50.8979C10.4949 91.1379 0.275879 100.093 0.0148788 102.358C-0.450121 106.4 10.1109 119.116 13.9329 119.116C16.0309 119.116 28.9809 108.828 71.8019 73.1399L126.969 27.1639L181.978 73.1399C225.843 109.801 237.557 119.116 239.796 119.116C242.055 119.116 243.701 117.775 248.218 112.255C256.853 101.7 257.16 102.381 235.817 84.7979L217.831 69.9809V36.6049C217.831 3.24893 217.83 3.22793 215.608 1.67293C212.697 -0.367072 182.209 -0.626071 179.536 1.36593C178.103 2.43393 177.821 5.05693 177.595 19.4169L177.331 36.2189L157.349 19.5189C146.359 10.3349 135.911 2.21193 134.131 1.46793C130.452 -0.0690718 123.579 -0.184071 119.735 1.22693ZM81.1509 78.4259L35.9719 115.616L35.9009 155.432C35.8289 196.163 35.9799 197.944 39.7439 200.834C40.9149 201.733 49.9139 202.061 74.0809 202.084L106.831 202.116V172.116V142.116H126.831H146.831V172.116V202.116H179.879H212.926L215.379 199.47L217.831 196.824L217.782 156.22L217.733 115.616L172.745 78.6159C148.002 58.2659 127.437 41.5299 127.044 41.4259C126.652 41.3209 106 57.9709 81.1509 78.4259Z" fill="black"/>
</svg>
