<svg width="416" height="245" viewBox="0 0 416 245" fill="none" xmlns="http://www.w3.org/2000/svg">
<path d="M193.42 50.9147C191.092 54.3251 188.494 58.4122 185.624 63.176C182.755 67.9397 179.697 73.2719 176.449 79.1725C173.688 84.0986 170.954 89.3496 168.248 94.9254C165.595 100.447 163.051 105.942 160.615 111.409C158.179 116.822 155.932 122.046 153.875 127.081C151.818 132.061 150.032 136.473 148.516 140.316C147 144.106 145.809 147.164 144.943 149.492C144.077 151.766 143.644 152.93 143.644 152.984C143.102 154.337 142.128 155.014 140.721 155.014C140.017 155.014 139.394 154.797 138.853 154.364C138.312 153.877 137.96 153.281 137.797 152.578C137.797 152.524 137.527 151.387 136.985 149.167C136.498 146.894 135.821 143.889 134.955 140.154C134.089 136.365 133.088 132.034 131.951 127.162C130.868 122.236 129.704 117.12 128.459 111.815C127.268 106.456 126.05 101.042 124.805 95.575C123.56 90.1075 122.396 84.9106 121.314 79.9845C117.687 90.2157 114.033 99.2831 110.352 107.187C106.725 115.036 102.989 121.884 99.1459 127.73C95.3024 133.523 91.3235 138.395 87.2094 142.346C83.1494 146.298 78.8728 149.492 74.3797 151.928C69.9407 154.31 65.2582 156.015 60.332 157.044C55.46 158.072 50.2902 158.587 44.8227 158.587C42.0077 158.587 39.0033 158.262 35.8094 157.612C32.6156 157.017 29.4487 156.069 26.309 154.77C23.1692 153.471 20.1648 151.847 17.2957 149.898C14.4266 147.949 11.8823 145.649 9.66287 142.996C7.44338 140.289 5.68404 137.258 4.38483 133.902C3.08562 130.491 2.43602 126.702 2.43602 122.534C2.43602 118.149 3.35629 114.143 5.19684 110.516C7.03738 106.835 9.52753 103.695 12.6673 101.097C15.807 98.4441 19.434 96.387 23.5482 94.9254C27.7165 93.4638 32.1013 92.733 36.7026 92.733C40.0589 92.733 43.0634 93.0307 45.7159 93.6262C48.4226 94.1675 50.8045 94.8712 52.8616 95.7374C54.9186 96.6035 56.678 97.5509 58.1396 98.5794C59.6012 99.6079 60.8192 100.555 61.7936 101.421C62.768 102.288 63.4718 103.045 63.9048 103.695C64.3379 104.29 64.5815 104.588 64.6356 104.588C64.9604 105.184 65.1228 105.752 65.1228 106.293C65.1228 107.051 64.8251 107.755 64.2296 108.405C63.6883 109.054 62.9575 109.379 62.0372 109.379C60.9545 109.379 60.0884 108.919 59.4388 107.999C59.3847 107.945 58.9516 107.457 58.1396 106.537C57.3276 105.563 56.0013 104.507 54.1608 103.37C52.3202 102.233 49.9383 101.205 47.0151 100.285C44.146 99.3643 40.6273 98.9042 36.459 98.9042C32.6697 98.9042 29.0698 99.4997 25.6594 100.691C22.3031 101.827 19.3528 103.451 16.8085 105.563C14.3184 107.674 12.3154 110.191 10.7997 113.114C9.33806 115.983 8.60726 119.15 8.60726 122.615C8.60726 126.025 9.17566 129.138 10.3125 131.953C11.4493 134.768 12.965 137.285 14.8597 139.504C16.7544 141.724 18.9468 143.646 21.4369 145.27C23.9271 146.894 26.5255 148.247 29.2322 149.33C31.9389 150.358 34.6456 151.143 37.3523 151.685C40.1131 152.172 42.7115 152.415 45.1475 152.415C49.2617 152.415 53.2676 152.118 57.1652 151.522C61.1169 150.873 64.9875 149.682 68.7769 147.949C72.6204 146.217 76.3826 143.835 80.0637 140.804C83.7448 137.772 87.3989 133.82 91.0258 128.948C94.6528 124.076 98.2256 118.203 101.744 111.328C105.317 104.453 108.89 96.3328 112.463 86.9677C113.545 84.1528 114.601 81.1213 115.63 77.8733C116.658 74.6252 117.714 71.3501 118.796 68.048C117.876 63.2842 117.199 59.2242 116.766 55.8679C116.387 52.5116 116.198 49.7237 116.198 47.5042C116.198 45.1224 116.387 43.2277 116.766 41.8202C117.145 40.4127 117.633 39.3571 118.228 38.6534C118.823 37.8955 119.473 37.4354 120.177 37.273C120.881 37.0564 121.557 36.9482 122.207 36.9482C122.748 36.9482 123.344 37.0564 123.993 37.273C124.697 37.4895 125.32 37.9767 125.861 38.7346C126.456 39.4383 126.944 40.4939 127.322 41.9014C127.701 43.3089 127.891 45.2036 127.891 47.5854C127.891 50.1839 127.647 53.1883 127.16 56.5987C126.673 60.0091 125.942 63.7714 124.968 67.8856C125.671 71.1877 126.483 74.8688 127.404 78.9289C128.324 82.9889 129.271 87.2113 130.246 91.5961C131.22 95.9268 132.222 100.366 133.25 104.913C134.279 109.46 135.28 113.899 136.255 118.23C137.229 122.561 138.149 126.702 139.015 130.654C139.936 134.605 140.775 138.178 141.533 141.372C142.994 137.691 144.781 133.252 146.892 128.055C149.003 122.804 151.358 117.256 153.956 111.409C156.555 105.509 159.288 99.5267 162.157 93.4638C165.081 87.3467 168.058 81.5814 171.09 76.168C175.366 68.4811 179.291 61.9038 182.864 56.4363C186.436 50.9147 189.522 46.3674 192.12 42.7946C194.719 39.2218 196.749 36.5963 198.211 34.9182C199.726 33.1859 200.538 32.2385 200.647 32.0761C201.242 31.4807 201.973 31.1829 202.839 31.1829C203.759 31.1829 204.49 31.5077 205.031 32.1573C205.627 32.7528 205.925 33.4566 205.925 34.2686C205.925 34.6475 205.843 35.0264 205.681 35.4054C205.681 35.4595 205.356 36.2715 204.707 37.8414C204.111 39.3571 203.326 41.4683 202.352 44.175C201.431 46.8276 200.403 49.9673 199.266 53.5943C198.129 57.1671 197.02 61.0377 195.937 65.206C194.854 69.3201 193.88 73.6508 193.014 78.1981C192.202 82.6912 191.606 87.1842 191.227 91.6773C191.065 93.7344 190.93 95.8998 190.821 98.1734C190.713 100.393 190.659 102.639 190.659 104.913C190.659 108.486 190.821 112.086 191.146 115.713C191.471 119.34 192.012 122.831 192.77 126.188C193.528 129.544 194.557 132.711 195.856 135.688C197.155 138.611 198.752 141.183 200.647 143.402C202.541 145.622 204.788 147.408 207.386 148.761C210.039 150.115 213.097 150.845 216.562 150.954C217.428 151.008 218.105 151.387 218.592 152.091C219.133 152.74 219.404 153.444 219.404 154.202C219.404 154.96 219.106 155.636 218.511 156.232C217.915 156.827 217.211 157.125 216.399 157.125C215.533 157.125 214.667 157.044 213.801 156.881C209.903 156.34 206.466 155.23 203.489 153.552C200.511 151.82 197.94 149.709 195.775 147.219C193.609 144.674 191.796 141.805 190.334 138.611C188.927 135.363 187.79 131.899 186.924 128.218C186.058 124.537 185.435 120.72 185.056 116.768C184.731 112.762 184.569 108.729 184.569 104.669C184.569 99.8515 184.812 95.0336 185.3 90.2157C185.787 85.3978 186.436 80.7153 187.248 76.168C188.06 71.5667 189.008 67.1277 190.09 62.8512C191.173 58.5746 192.283 54.5958 193.42 50.9147Z" fill="#807A6E"/>
<path d="M264.351 110.851C264.351 111.176 264.235 111.466 264.003 111.721C263.771 111.954 263.434 112.07 262.993 112.07C262.669 112.07 262.321 112.058 261.949 112.035C261.601 112.012 261.091 112 260.418 112C260.07 112 259.548 112.023 258.852 112.07C258.179 112.093 257.402 112.139 256.52 112.209C255.662 112.278 254.734 112.36 253.736 112.452C252.739 112.522 251.73 112.603 250.709 112.696C250.732 112.812 250.744 112.998 250.744 113.253C250.744 115.503 250.245 117.498 249.247 119.238C248.273 120.978 246.962 122.452 245.315 123.658C243.691 124.841 241.8 125.746 239.642 126.372C237.485 126.976 235.246 127.277 232.926 127.277C231.256 127.277 229.678 127.045 228.193 126.581C226.731 126.117 225.444 125.444 224.33 124.563C223.24 123.681 222.37 122.602 221.72 121.326C221.094 120.05 220.781 118.589 220.781 116.942C220.781 115.619 221.047 114.401 221.581 113.288C222.115 112.174 222.834 111.188 223.739 110.329C224.667 109.448 225.757 108.705 227.01 108.102C228.263 107.499 229.62 107.035 231.082 106.71C230.664 106.525 230.223 106.269 229.759 105.945C229.318 105.597 228.912 105.191 228.541 104.727C228.17 104.239 227.857 103.694 227.601 103.091C227.369 102.465 227.253 101.78 227.253 101.038C227.253 99.2746 227.648 97.7434 228.437 96.4442C229.249 95.145 230.281 94.0662 231.534 93.2078C232.787 92.3494 234.167 91.7114 235.675 91.2938C237.206 90.8762 238.691 90.6674 240.13 90.6674C241.382 90.6674 242.542 90.8182 243.61 91.1198C244.7 91.3982 245.628 91.8042 246.394 92.3378C247.182 92.8482 247.797 93.4862 248.238 94.2518C248.702 94.9942 248.934 95.8178 248.934 96.7226C248.934 97.4882 248.783 98.219 248.482 98.915C248.18 99.5878 247.762 100.179 247.229 100.69C246.718 101.2 246.104 101.606 245.384 101.908C244.688 102.186 243.923 102.325 243.088 102.325C242.345 102.325 241.684 102.221 241.104 102.012C240.547 101.78 240.072 101.513 239.677 101.212C239.283 100.887 238.981 100.562 238.772 100.237C238.564 99.8894 238.459 99.5994 238.459 99.3674C238.459 98.9962 238.575 98.683 238.807 98.4278C239.062 98.1726 239.376 98.045 239.747 98.045C240.002 98.045 240.199 98.1146 240.338 98.2538C240.478 98.3698 240.617 98.509 240.756 98.6714C240.988 98.9498 241.266 99.2282 241.591 99.5066C241.939 99.785 242.484 99.9242 243.227 99.9242C243.737 99.9242 244.178 99.843 244.549 99.6806C244.92 99.495 245.234 99.263 245.489 98.9846C245.744 98.683 245.93 98.3582 246.046 98.0102C246.185 97.639 246.254 97.2794 246.254 96.9314C246.254 96.4906 246.127 96.0498 245.872 95.609C245.64 95.1682 245.28 94.7738 244.793 94.4258C244.306 94.0778 243.679 93.7994 242.914 93.5906C242.148 93.3818 241.243 93.2774 240.199 93.2774C239.155 93.2774 238.03 93.4282 236.824 93.7298C235.64 94.0082 234.527 94.449 233.483 95.0522C232.462 95.6322 231.604 96.3978 230.908 97.349C230.235 98.277 229.898 99.379 229.898 100.655C229.898 101.49 230.038 102.198 230.316 102.778C230.618 103.335 231.024 103.799 231.534 104.17C232.044 104.541 232.648 104.843 233.344 105.075C234.063 105.283 234.852 105.469 235.71 105.631C236.035 105.701 236.336 105.771 236.615 105.84C236.916 105.887 237.172 105.968 237.38 106.084C237.612 106.177 237.786 106.316 237.902 106.501C238.042 106.664 238.111 106.896 238.111 107.197C238.111 107.569 237.984 107.87 237.728 108.102C237.496 108.311 237.172 108.415 236.754 108.415C236.336 108.415 235.722 108.439 234.91 108.485C234.098 108.531 233.193 108.659 232.195 108.868C231.221 109.053 230.212 109.332 229.167 109.703C228.123 110.051 227.172 110.55 226.314 111.199C225.479 111.826 224.783 112.603 224.226 113.531C223.692 114.459 223.425 115.584 223.425 116.907C223.425 118.229 223.669 119.389 224.156 120.387C224.667 121.361 225.351 122.173 226.209 122.823C227.068 123.449 228.065 123.925 229.202 124.25C230.362 124.551 231.604 124.702 232.926 124.702C234.782 124.702 236.615 124.482 238.424 124.041C240.257 123.577 241.893 122.881 243.331 121.953C244.77 121.025 245.93 119.853 246.811 118.438C247.716 117.023 248.168 115.364 248.168 113.462C248.168 113.369 248.157 113.288 248.134 113.218C248.134 113.125 248.134 113.021 248.134 112.905C246.881 113.021 245.744 113.137 244.723 113.253C243.726 113.346 242.937 113.415 242.357 113.462C242.171 113.485 242.009 113.508 241.87 113.531C241.754 113.531 241.661 113.531 241.591 113.531C241.197 113.531 240.86 113.415 240.582 113.183C240.304 112.951 240.164 112.615 240.164 112.174C240.164 111.849 240.269 111.571 240.478 111.339C240.71 111.083 241.011 110.933 241.382 110.886C242.055 110.817 242.925 110.724 243.992 110.608C245.06 110.492 246.22 110.387 247.472 110.295C248.748 110.179 250.059 110.074 251.405 109.981C252.75 109.865 254.026 109.761 255.233 109.668C256.462 109.575 257.576 109.506 258.574 109.459C259.594 109.413 260.406 109.39 261.01 109.39C262.309 109.39 263.191 109.506 263.655 109.738C264.119 109.97 264.351 110.341 264.351 110.851Z" fill="#807A6E"/>
<path d="M411.371 77.4673C411.371 78.2793 411.074 79.0101 410.478 79.6597C409.937 80.3093 409.233 80.6341 408.367 80.6341C407.555 80.6341 406.851 80.3634 406.256 79.8221C405.66 79.2807 405.309 78.5499 405.2 77.6297C405.146 77.4131 405.011 76.3846 404.794 74.544C404.632 72.7035 404.09 70.4569 403.17 67.8044C402.304 65.0977 400.951 62.2286 399.11 59.1971C397.27 56.1115 394.725 53.2695 391.477 50.6711C388.283 48.0727 384.223 45.9073 379.297 44.175C374.371 42.4427 368.389 41.5766 361.352 41.5766C355.127 41.5766 348.847 42.5239 342.513 44.4186C336.234 46.2592 330.198 48.8847 324.406 52.2951C318.613 55.6514 313.2 59.6843 308.166 64.394C303.131 69.0495 298.746 74.1922 295.011 79.8221C291.33 85.452 288.407 91.4608 286.241 97.8486C284.13 104.236 283.075 110.814 283.075 117.58C283.075 123.697 283.914 128.948 285.592 133.333C287.27 137.664 289.598 141.21 292.575 143.97C295.552 146.731 299.044 148.761 303.05 150.061C307.11 151.306 311.468 151.928 316.123 151.928C324.189 151.928 331.714 150.548 338.697 147.787C345.734 144.972 352.23 141.21 358.185 136.5C364.194 131.736 369.661 126.215 374.588 119.935C379.514 113.601 383.926 106.943 387.823 99.9598C388.256 93.3555 389.014 88.3211 390.097 84.8565C391.234 81.3378 392.912 79.5785 395.131 79.5785C396.376 79.5785 397.405 80.0927 398.217 81.1213C399.083 82.1498 399.516 83.4761 399.516 85.1001C399.516 86.8865 399.056 89.1601 398.136 91.9209C397.216 94.6818 395.808 97.8757 393.913 101.503C393.751 104.047 393.67 106.781 393.67 109.704C393.67 113.98 393.832 118.663 394.157 123.752C394.536 128.84 395.104 134.253 395.862 139.992C398.136 138.855 399.895 138.043 401.14 137.556C402.439 137.014 403.387 136.662 403.982 136.5C404.578 136.284 404.957 136.202 405.119 136.256C405.281 136.256 405.417 136.256 405.525 136.256C406.337 136.256 407.041 136.554 407.636 137.15C408.286 137.691 408.611 138.422 408.611 139.342C408.611 139.992 408.421 140.587 408.042 141.128C407.663 141.616 407.149 141.968 406.499 142.184C406.391 142.238 405.444 142.617 403.657 143.321C401.925 143.97 399.597 145.026 396.674 146.488C396.945 149.411 397.161 152.361 397.324 155.339C397.486 158.316 397.567 161.32 397.567 164.352C397.567 171.497 397.053 178.318 396.025 184.814C394.996 191.31 393.291 197.022 390.909 201.948C388.581 206.874 385.469 210.771 381.571 213.641C377.673 216.564 372.882 218.025 367.198 218.025C364.383 218.025 361.785 217.538 359.403 216.564C357.021 215.589 354.964 214.236 353.232 212.504C351.5 210.771 350.146 208.687 349.172 206.251C348.197 203.869 347.71 201.244 347.71 198.375C347.71 194.315 348.387 190.309 349.74 186.357C351.148 182.405 352.988 178.589 355.262 174.908C357.59 171.227 360.242 167.735 363.22 164.433C366.197 161.185 369.255 158.181 372.395 155.42C375.535 152.659 378.621 150.223 381.652 148.112C384.738 146.001 387.553 144.295 390.097 142.996C389.393 137.583 388.825 132.278 388.392 127.081C387.959 121.83 387.688 116.741 387.58 111.815C382.87 119.34 377.673 125.971 371.989 131.709C366.359 137.447 360.459 142.265 354.287 146.163C348.116 150.061 341.756 153.011 335.205 155.014C328.709 156.963 322.24 157.937 315.798 157.937C309.952 157.937 304.647 157.071 299.883 155.339C295.119 153.552 291.032 150.954 287.622 147.543C284.211 144.133 281.586 139.91 279.745 134.876C277.905 129.842 276.985 124.049 276.985 117.499C276.985 110.57 278.067 103.749 280.233 97.0366C282.398 90.2699 285.402 83.855 289.246 77.7921C293.089 71.6749 297.637 66.045 302.888 60.9023C308.193 55.7596 313.958 51.3207 320.183 47.5854C326.463 43.7961 333.067 40.8458 339.996 38.7346C346.979 36.5692 354.098 35.4866 361.352 35.4866C368.335 35.4866 374.398 36.2986 379.541 37.9226C384.684 39.4925 389.041 41.5225 392.614 44.0126C396.241 46.4486 399.164 49.1283 401.384 52.0515C403.657 54.9206 405.444 57.6543 406.743 60.2527C407.826 62.4722 408.665 64.6105 409.26 66.6676C409.91 68.7247 410.37 70.5381 410.641 72.108C410.965 73.6779 411.155 74.95 411.209 75.9244C411.317 76.8988 411.371 77.4131 411.371 77.4673ZM390.828 149.736C388.121 151.251 385.306 153.065 382.383 155.176C379.514 157.233 376.699 159.507 373.938 161.997C371.231 164.487 368.66 167.167 366.224 170.036C363.788 172.905 361.65 175.882 359.809 178.968C357.969 182.054 356.507 185.22 355.424 188.468C354.396 191.771 353.881 195.073 353.881 198.375C353.881 200.432 354.206 202.272 354.856 203.897C355.505 205.575 356.426 206.982 357.617 208.119C358.808 209.31 360.215 210.23 361.839 210.88C363.463 211.529 365.25 211.854 367.198 211.854C374.831 211.854 380.786 207.794 385.062 199.674C389.339 191.608 391.477 179.807 391.477 164.271C391.477 161.943 391.423 159.561 391.315 157.125C391.207 154.743 391.044 152.28 390.828 149.736Z" fill="#807A6E"/>
</svg>
