<svg width="109" height="160" viewBox="0 0 109 160" fill="none" xmlns="http://www.w3.org/2000/svg">
<path fill-rule="evenodd" clip-rule="evenodd" d="M0.0248765 0.637522C-0.361623 1.64502 3.85538 11.0865 5.73788 13.429C7.24988 15.3105 7.25238 15.3235 6.01238 14.852C5.32388 14.5905 4.64438 14.564 4.50288 14.793C4.13638 15.386 8.53788 21.478 12.2309 25.49C15.0874 28.593 15.2359 28.8585 13.9189 28.514C11.8464 27.9725 10.1004 28.0075 9.89638 28.5955C9.67838 29.223 18.9769 35.506 26.8164 40.029L32.6579 43.3985L38.3164 52.9935C45.8444 65.759 50.0654 74.268 52.6239 81.838C54.7214 88.0435 57.3534 97.876 57.0094 98.2205C56.9104 98.319 55.4639 96.417 53.7939 93.994C51.6059 90.818 50.6704 88.96 50.4439 87.338C49.2929 79.1015 47.5674 75.727 41.8124 70.463C39.3324 68.1945 37.1734 66.338 37.0139 66.338C36.4299 66.338 36.7604 68.0915 38.2609 72.955C39.1059 75.6925 39.7024 78.027 39.5864 78.143C39.1994 78.53 34.9954 73.543 33.2249 70.5955C32.2624 68.9935 30.0754 66.2745 28.3649 64.553C24.9854 61.152 17.2134 55.7065 16.5854 56.299C16.3714 56.501 18.0029 59.8545 20.2104 63.7515C22.4184 67.648 24.2249 70.916 24.2249 71.0135C24.2249 71.1105 21.8624 71.482 18.9749 71.838C16.0874 72.194 13.7249 72.66 13.7249 72.8735C13.7249 73.087 14.2824 73.9235 14.9634 74.733C17.8429 78.155 24.9904 79.566 32.0969 78.115L36.2189 77.2735L38.7219 79.384C40.0984 80.545 41.2249 81.5445 41.2249 81.6055C41.2249 81.667 40.2309 81.505 39.0159 81.2455C37.3254 80.885 35.4814 81.0165 31.1589 81.8065C28.0519 82.3735 25.3059 82.838 25.0564 82.838C24.8069 82.838 24.8719 83.1625 25.2009 83.559C25.8304 84.318 38.8274 88.838 40.3799 88.838C40.8774 88.838 41.1654 89.03 41.0204 89.2645C40.8754 89.4995 39.0399 89.821 36.9424 89.9795C34.8444 90.1385 33.0014 90.395 32.8464 90.55C31.4969 91.899 41.4609 96.882 49.1314 98.694C52.0704 99.3885 54.7469 100.032 55.0794 100.124C56.2704 100.454 58.3419 105.593 59.4804 111.042C61.2924 119.715 62.1329 126.206 62.9839 138.088C63.7864 149.292 64.8354 157.176 65.7509 158.887C66.6264 160.523 67.1124 159.93 66.7114 157.713C66.4999 156.544 65.9329 150.131 65.4509 143.46C64.4504 129.604 64.3254 130.19 68.6244 128.569C74.4719 126.363 78.3964 122.744 81.2034 116.97C82.1074 115.11 83.2694 112.991 83.7859 112.261C84.8739 110.724 84.9894 109.833 84.0999 109.85C83.7564 109.856 80.2124 111.744 76.2249 114.046C72.2374 116.347 68.8999 118.03 68.8084 117.785C68.7169 117.54 69.2404 115.544 69.9714 113.348C71.2449 109.524 71.3804 109.335 73.1859 108.849C75.9684 108.099 78.4479 106.097 83.9969 100.115C86.7349 97.164 89.5939 94.426 90.3499 94.031C91.1059 93.6355 91.7249 93.0635 91.7249 92.7595C91.7249 91.784 88.0834 92.6305 82.2839 94.955C79.2264 96.18 76.7249 97.1155 76.7249 97.0335C76.7249 96.7175 82.9019 86.5535 83.4724 85.931C83.8034 85.57 85.8519 84.821 88.0244 84.267C93.3559 82.9075 97.5844 80.8165 100.737 77.9815C103.436 75.5555 109.099 67.5455 108.523 66.9695C108.051 66.498 105.304 67.5725 97.9159 71.1195C92.9789 73.49 90.5989 74.97 88.2909 77.107C86.6049 78.6685 85.2249 79.865 85.2249 79.767C85.2249 79.6685 85.5624 77.8245 85.9749 75.669C86.8304 71.1985 86.9919 61.062 86.2149 60.582C85.4909 60.1345 79.4159 72.8845 78.4139 76.9545C77.6444 80.081 77.6439 80.562 78.4064 83.7045C78.8579 85.5655 79.2269 87.566 79.2264 88.15C79.2249 89.044 76.9279 93.838 76.5004 93.838C76.4239 93.838 76.3844 91.8695 76.4124 89.463C76.4574 85.668 75.2844 78.7575 73.9384 74.8795C73.3749 73.257 72.7189 75.553 71.2609 84.252C69.4619 94.9845 69.3474 98.7075 70.7224 101.737C71.6444 103.769 71.6534 104.001 70.8859 105.987C69.7789 108.853 69.2249 109.355 69.2249 107.491C69.2249 103.477 64.9169 93.338 63.2119 93.338C63.0149 93.338 62.7069 94.5195 62.5269 95.963C61.7634 102.097 61.0904 106.371 60.9164 106.196C60.8134 106.093 59.0349 99.952 56.9639 92.5485C54.8929 85.145 52.5009 77.015 51.6484 74.481C50.1534 70.04 50.1179 69.7385 50.6614 66.086C50.9714 64.002 51.2249 61.4565 51.2249 60.429C51.2249 57.7105 52.2364 56.6065 55.3689 55.9055C57.8264 55.3555 58.7889 54.662 65.7274 48.4435C71.9414 42.874 73.1724 41.5575 72.2889 41.4265C70.9124 41.2225 67.3744 42.369 60.8009 45.1495C57.9549 46.353 55.5404 47.338 55.4354 47.338C55.1404 47.338 58.3049 38.671 58.8584 37.963C59.1349 37.61 60.4629 37.3345 61.9109 37.33C65.9209 37.318 70.0509 36.125 72.8884 34.1595C75.5659 32.3045 82.7249 24.819 82.7249 23.874C82.7249 23.152 83.1224 23.084 73.0999 25.5235C68.2189 26.712 64.2249 27.5975 64.2249 27.491C64.2249 26.951 66.2399 23.451 66.8134 22.9945C67.1774 22.7055 68.3144 22.317 69.3404 22.1325C71.8639 21.6775 73.0994 19.9355 76.6829 11.7785C79.3139 5.78852 79.5234 5.07152 78.6844 4.92952C77.6209 4.75002 72.4559 8.28702 68.4934 11.908C65.4189 14.718 64.0589 17.5495 64.4829 20.2585C64.6849 21.5475 64.3144 20.9575 63.2299 18.2635C61.6984 14.4605 58.0664 9.56802 57.1804 10.1155C56.5649 10.496 56.6404 25.0165 57.2724 27.838C58.1264 31.65 58.3774 35.185 57.8179 35.5305C57.5179 35.716 56.1904 33.734 54.6829 30.8515C53.2444 28.101 51.6579 25.4795 51.1569 25.0265C50.3074 24.2575 50.2199 24.2655 49.8604 25.145C49.6484 25.6635 49.4949 29.913 49.5199 34.588C49.5619 42.54 49.6504 43.3095 50.8949 46.5225C51.6264 48.4115 52.2249 50.281 52.2249 50.677C52.2249 51.826 51.3679 50.98 50.9999 49.4675C50.8149 48.709 49.7394 46.522 48.6099 44.608C47.4799 42.6945 46.4159 40.4455 46.2454 39.611C45.2999 34.9885 41.9939 40.8275 42.0114 47.088C42.0239 51.3765 43.3664 54.702 46.8269 59.014C48.6979 61.3455 49.2234 62.396 49.2174 63.795C49.1999 67.888 48.4739 67.0585 40.7499 54.114L33.1214 41.3295L33.4604 37.4585C33.9364 32.0135 32.8984 27.685 29.0779 19.183C25.6359 11.524 24.6474 10.537 24.2249 14.338C23.9809 16.536 23.9134 16.407 21.3049 8.73702C18.7594 1.25102 17.6999 -0.834977 17.0099 0.281023C16.8429 0.551523 16.3679 3.43152 15.9544 6.68052C15.5409 9.92952 15.1394 12.9255 15.0619 13.338C14.9844 13.752 14.4049 13.097 13.7679 11.8745C12.2614 8.98402 8.17638 4.68652 4.72488 2.36202C1.24938 0.0210207 0.383377 -0.296478 0.0248765 0.637522ZM7.60588 6.85152C9.11288 8.17602 9.64188 8.97252 9.41288 9.57002C9.18838 10.1545 9.77638 11.135 11.3214 12.7515C14.5119 16.09 18.6109 21.1075 17.7249 20.5905C14.2704 18.573 9.22088 14.6735 7.46688 12.668C5.28888 10.178 3.08788 6.20802 2.42788 3.57852L2.05938 2.10952L3.76688 3.54402C4.70638 4.33302 6.43388 5.82152 7.60588 6.85152ZM19.9519 10.169C21.4969 14.0275 22.5924 20.77 21.8814 22.0405C21.4779 22.762 21.1139 22.4575 19.5344 20.0785C18.0409 17.8295 17.7839 17.1195 18.2559 16.5505C18.7064 16.008 18.7084 15.6705 18.2649 15.1365C17.2064 13.861 16.6984 11.1255 17.0229 8.45102C17.4244 5.14552 18.0999 5.54202 19.9519 10.169ZM75.1014 10.463C74.9749 10.807 74.3559 12.6495 73.7254 14.558C72.4124 18.5355 70.8944 20.3415 68.8724 20.3305C66.6634 20.318 66.0329 19.673 66.4064 17.8055C66.8794 15.44 68.9119 13.038 71.8814 11.335C74.7169 9.70852 75.4529 9.50902 75.1014 10.463ZM61.6914 18.6865C62.3769 21.156 62.3334 22.6605 61.5099 24.9685C61.1394 26.0075 61.0369 26.972 61.2819 27.123C61.9969 27.565 61.7949 28.6415 60.7589 29.9075L59.7929 31.088L59.0089 29.229C58.4219 27.837 58.2284 25.64 58.2394 20.479L58.2544 13.588L59.7089 15.1865C60.5089 16.0655 61.4009 17.6405 61.6914 18.6865ZM28.1969 21.463C31.0804 27.5925 31.7314 30.0935 31.7044 34.9345L31.6839 38.588L29.6494 36.338C25.1764 31.3915 23.3009 24.775 24.7079 18.908C25.0474 17.4945 25.4284 16.338 25.5554 16.338C25.6824 16.338 26.8714 18.644 28.1969 21.463ZM12.1624 19.306C13.2469 19.8595 15.1399 21.1615 16.3699 22.2C17.5994 23.2385 19.4204 24.717 20.4164 25.4855C22.2069 26.867 24.5709 30.6585 23.9989 31.231C23.5254 31.7045 19.3059 29.459 16.2699 27.118C13.5594 25.028 10.3404 21.543 8.49438 18.7005L7.59338 17.3125L8.89188 17.8065C9.60638 18.078 11.0779 18.753 12.1624 19.306ZM77.7854 27.225C76.9409 28.8035 71.9619 33.197 69.7244 34.3385C67.3199 35.565 62.3329 36.228 61.0234 35.495C60.2749 35.0765 60.3494 34.819 61.7119 33.1045C64.3694 29.7605 66.7994 28.3445 71.5954 27.346C77.5294 26.1105 78.3909 26.0935 77.7854 27.225ZM54.5454 34.8005C55.5144 38.0805 55.2444 43.1545 53.9454 46.088L53.0599 48.088L52.1224 45.088C51.0304 41.5925 50.4249 34.0805 50.9519 30.566L51.3189 28.121L52.5314 30.1045C53.1989 31.1955 54.1049 33.3085 54.5454 34.8005ZM22.0559 33.131C23.7509 34.07 25.4414 34.838 25.8129 34.838C26.1844 34.838 27.4544 36.0755 28.6359 37.588C29.8169 39.1005 30.5369 40.338 30.2359 40.338C29.7254 40.338 15.0549 31.243 13.9959 30.27C12.9674 29.3255 19.1434 31.5175 22.0559 33.131ZM48.6194 47.588C49.2469 48.702 49.4689 50.3385 49.4829 53.9495L49.5014 58.811L48.0854 57.454C46.2264 55.673 43.8049 50.672 43.4229 47.8235C43.2134 46.2625 43.3744 44.948 43.9404 43.5935L44.7619 41.628L46.2684 43.858C47.0969 45.0845 48.1549 46.763 48.6194 47.588ZM64.9509 47.232C59.3744 52.4375 56.9494 54.2505 55.0999 54.5975C52.9934 54.9925 52.7959 54.6175 53.9424 52.4005C54.8109 50.7215 58.0834 47.6955 60.2334 46.5835C61.6799 45.8355 64.9359 44.997 66.7249 44.912C67.1374 44.892 66.3389 45.9365 64.9509 47.232ZM26.7494 65.149C30.5124 68.7795 32.8389 72.338 31.4494 72.338C30.0209 72.338 25.7814 69.7565 24.5429 68.1325C23.8949 67.283 22.6504 65.1715 21.7764 63.4405L20.1879 60.293L21.8314 61.1415C22.7354 61.608 24.9484 63.4115 26.7494 65.149ZM85.0159 71.8925C84.7369 75.399 83.1489 81.1775 81.7409 83.808C80.3344 86.4365 78.6494 81.8065 79.6874 78.165C80.0134 77.0225 81.2059 73.7475 82.3379 70.8865C84.1639 66.272 84.4484 65.8205 84.8574 66.8865C85.1109 67.5475 85.1824 69.8 85.0159 71.8925ZM104.632 70.906C102.952 73.908 100.588 76.05 95.2249 79.429C91.0444 82.0625 90.2449 82.3915 88.5584 82.1715C87.5044 82.0345 86.4919 81.767 86.3084 81.5775C86.1249 81.3875 87.4199 79.899 89.1859 78.269C91.5789 76.0605 94.0639 74.4835 98.9359 72.0825C102.532 70.31 105.545 68.855 105.632 68.849C105.718 68.843 105.268 69.7685 104.632 70.906ZM43.4184 74.1665C45.7594 76.481 48.0189 81.169 48.4409 84.588L48.7499 87.088L46.2589 84.452C43.7344 81.7795 40.5569 75.966 39.9554 72.919C39.6569 71.4065 39.7129 71.2965 40.5504 71.7475C41.0589 72.0215 42.3494 73.11 43.4184 74.1665ZM29.3489 73.364C30.3799 73.6505 31.8424 74.4195 32.5989 75.073L33.9749 76.261L32.5674 76.7995C30.5464 77.5725 24.3269 77.463 21.4319 76.603C18.7879 75.818 16.7814 74.615 17.2814 74.1145C18.3534 73.0425 26.3914 72.5425 29.3489 73.364ZM74.6059 86.799C74.9439 91.526 73.3489 100.838 72.2014 100.838C71.9394 100.838 71.7249 99.752 71.7249 98.425C71.7249 95.8485 72.5559 86.233 73.0274 83.3525C73.2784 81.8195 73.3734 81.7275 73.8414 82.5635C74.1324 83.084 74.4764 84.99 74.6059 86.799ZM41.7559 84.547C44.3244 85.8275 48.7814 89.6445 49.7369 91.382C50.0714 91.991 49.6354 91.9035 47.8644 91.007C46.5944 90.364 44.6934 89.838 43.6404 89.838C41.8034 89.838 40.8004 88.8565 42.5999 88.8205C43.0814 88.8105 44.0094 88.5065 44.6624 88.144C45.7424 87.5455 45.4514 87.4535 41.4614 87.1295C37.6839 86.823 29.2249 84.7155 29.2249 84.0805C29.2249 83.474 32.8684 82.888 35.7559 83.0295C38.0804 83.144 39.8299 83.5865 41.7559 84.547ZM47.8394 93.234C50.7504 94.667 54.2054 97.524 53.6724 98.057C53.1704 98.5595 43.2539 95.6645 39.7799 94.002C35.3399 91.8765 35.6964 91.188 41.0849 91.486C43.8354 91.6385 45.4434 92.0545 47.8394 93.234ZM85.7429 95.8045C84.5909 97.957 77.1494 105.221 74.7679 106.517C73.3694 107.278 72.2249 107.751 72.2249 107.567C72.2249 106.558 75.0484 101.822 76.6334 100.171C78.6689 98.051 82.9629 95.6525 86.1174 94.873C86.1959 94.854 86.0274 95.273 85.7429 95.8045ZM65.7749 100.585C67.2839 103.997 68.0094 110.512 67.3339 114.589C67.0274 116.439 66.6334 118.096 66.4584 118.271C65.9249 118.803 63.8039 115.954 63.2509 113.962C62.9649 112.932 62.7294 110.978 62.7279 109.622C62.7234 105.913 63.7914 98.338 64.3184 98.338C64.5729 98.338 65.2284 99.349 65.7749 100.585ZM79.9444 114.963C78.5494 119.475 74.7274 123.894 70.4749 125.913C66.5219 127.79 66.0144 127.766 66.4234 125.721C67.1344 122.166 70.8864 118.278 76.4114 115.372C79.8964 113.539 80.4029 113.48 79.9444 114.963ZM65.2149 120.814C65.6489 121.862 65.6549 122.742 65.2369 124.293C64.9299 125.434 64.4954 126.255 64.2719 126.117C64.0489 125.979 63.7144 124.576 63.5289 122.998C63.3434 121.421 63.0529 119.558 62.8834 118.859C62.5804 117.61 62.5929 117.604 63.6044 118.499C64.1704 119.001 64.8949 120.042 65.2149 120.814Z" fill="black"/>
</svg>
