<svg width="77" height="166" viewBox="0 0 77 166" fill="none" xmlns="http://www.w3.org/2000/svg">
<path fill-rule="evenodd" clip-rule="evenodd" d="M17.9263 0.902923C17.0938 1.57692 16.8128 2.28442 16.8828 3.52792C17.4463 13.5044 17.4623 16.5449 16.9563 17.3439C16.5253 18.0244 16.4608 17.3604 16.6798 14.4799C17.1383 8.43792 14.9663 5.54692 11.6173 7.74142C10.4053 8.53592 10.3553 8.73892 10.6773 11.5819C10.9608 14.0894 10.8678 14.7479 10.1108 15.5839C9.47381 16.2879 9.20531 17.3794 9.20531 19.2644C9.20531 22.4874 10.1433 23.6799 12.6798 23.6799C14.2763 23.6799 14.5013 23.8734 15.4368 26.0474C16.1178 27.6309 16.4553 29.5034 16.4553 31.6994C16.4553 34.0284 16.7463 35.5264 17.4553 36.8494C18.3188 38.4599 18.4553 39.6704 18.4553 45.7014C18.4553 49.5434 18.1318 55.3969 17.7368 58.7084C16.7538 66.9459 15.9553 77.8929 15.9553 83.1369C15.9553 89.6774 11.0033 121.825 6.67781 143.363C5.36931 149.879 3.09831 157.491 1.14281 161.917C-0.207689 164.973 -0.336191 165.98 0.624809 165.98C1.37881 165.98 1.77431 165.202 4.43681 158.48C5.66931 155.369 6.32681 152.889 6.34281 151.295C6.35931 149.586 6.83881 147.93 7.94781 145.745C9.24181 143.195 9.46981 142.276 9.20481 140.68C8.99381 139.412 9.04431 138.963 9.34831 139.397C10.0873 140.45 10.4553 138.914 10.4553 134.777C10.4553 132.36 10.8718 129.765 11.7073 126.973C12.3963 124.672 13.9803 118.501 15.2273 113.259C18.0853 101.25 18.5398 99.8414 21.5253 93.7299C23.9798 88.7059 29.7998 80.8469 32.5878 78.7919L33.9708 77.7729L35.0093 78.8114C35.9183 79.7209 36.2958 79.7869 38.0408 79.3444C40.2183 78.7914 41.2418 77.1894 40.7273 75.1389C40.1443 72.8174 38.8078 72.8199 35.3773 75.1484C30.6783 78.3384 30.6898 78.3334 31.6968 76.6294C32.3308 75.5554 33.7338 74.6124 36.6438 73.3034C41.2148 71.2469 41.5833 71.1789 42.4553 72.2299C43.8708 73.9354 47.9553 72.4864 47.9553 70.2789C47.9553 69.1079 46.5678 67.4799 45.5693 67.4799C45.2633 67.4799 44.1713 67.9764 43.1433 68.5829C40.2428 70.2939 35.4543 72.4769 35.4638 72.0839C35.4683 71.8889 37.3123 70.4344 39.5608 68.8504C43.4938 66.0809 43.7398 65.9834 46.0158 66.2849C48.1123 66.5634 48.5283 66.4524 49.6683 65.3124C51.1598 63.8209 51.3923 61.2919 50.1633 59.9334C49.4338 59.1274 49.4663 58.9959 50.5778 58.2674C51.2413 57.8329 52.3288 57.4654 52.9948 57.4509C53.6608 57.4369 55.4428 57.3814 56.9553 57.3274L59.7053 57.2299L59.5383 59.1284C59.3298 61.5059 60.1123 62.4799 62.2308 62.4799C63.7898 62.4799 65.1468 61.6559 65.5423 60.4684C65.6548 60.1314 66.3388 60.2479 67.4228 60.7889C68.9313 61.5414 69.2748 61.5559 70.4163 60.9184C71.4183 60.3584 71.7388 59.7454 71.8553 58.1629C71.9918 56.3169 72.1163 56.1494 73.2008 56.3564C74.0228 56.5139 74.7948 56.1859 75.6753 55.3054C77.2088 53.7719 77.2173 53.6659 75.9803 51.6369C74.3453 48.9554 73.8118 48.9044 67.2703 50.8039C64.0063 51.7514 61.1938 52.3849 61.0208 52.2119C60.6343 51.8259 63.2363 49.5324 65.3583 48.3884C67.9543 46.9894 68.1418 43.2804 65.6973 41.6789C64.5508 40.9274 64.3598 40.9274 63.2158 41.6769C61.4308 42.8464 60.2908 45.2384 60.9403 46.4514C61.2233 46.9809 61.4553 47.8484 61.4553 48.3784C61.4553 49.8229 57.0363 53.6749 53.1108 55.6514C51.2043 56.6119 47.5753 58.7814 45.0458 60.4729C39.8563 63.9444 34.4148 69.9574 28.5703 78.6784C26.7468 81.3999 25.1773 83.3954 25.0828 83.1119C24.8028 82.2719 28.4983 73.5054 29.7688 71.9954C30.4133 71.2294 31.2253 69.7314 31.5733 68.6664C32.0723 67.1379 32.6618 66.5104 34.3738 65.6889C37.8878 64.0019 38.3638 62.3119 35.9938 59.9414C34.2703 58.2184 33.9443 58.1729 32.3858 59.4384C31.3898 60.2474 31.2053 60.8529 31.2053 63.3134C31.2053 66.3619 31.2688 66.3004 28.8368 65.6124C27.6778 65.2844 24.4553 68.5229 24.4553 70.0154C24.4553 70.6399 24.8323 71.5679 25.2933 72.0769C25.7543 72.5864 26.1223 73.7289 26.1113 74.6164C26.0883 76.4619 21.8173 89.1594 19.0928 95.4799C18.0853 97.8174 16.6438 101.867 15.8888 104.48C15.1338 107.092 14.5028 109.017 14.4858 108.758C14.4688 108.498 15.2563 101.861 16.2353 94.0079C18.0083 79.7859 18.0238 79.7124 20.1468 75.2299C22.1833 70.9309 28.3818 61.0724 31.2433 57.5819C33.0793 55.3419 35.2043 54.3069 37.1463 54.7064C40.9613 55.4914 41.9063 55.5414 42.8983 55.0104C44.1558 54.3374 44.2968 52.3929 43.1698 51.2654C42.0773 50.1734 41.5403 50.2594 38.2148 52.0604C36.6098 52.9294 35.4868 53.3234 35.7188 52.9354C37.8808 49.3229 40.2798 47.9659 42.6198 49.0319C44.9473 50.0924 48.6818 47.7049 48.1113 45.5214C47.9823 45.0299 47.0538 44.2354 46.0473 43.7549L44.2168 42.8824L45.3758 41.9434C47.5333 40.1964 54.9063 38.8429 56.7238 39.8604C58.9018 41.0789 62.1068 38.1319 60.9513 35.9729C59.6823 33.6009 57.0508 34.0219 54.4553 37.0124C53.5483 38.0569 52.5873 38.5334 50.9553 38.7479L48.7053 39.0434L50.7043 37.2264C51.8038 36.2274 54.6163 34.4989 56.9543 33.3859C60.8178 31.5469 61.3423 31.4179 62.7053 31.9719C65.5263 33.1179 66.1868 33.0934 67.5928 31.7904C69.9423 29.6129 69.1798 26.9799 66.1998 26.9799C64.7283 26.9799 62.4553 28.4849 62.4553 29.4594C62.4553 29.7014 61.2738 30.2879 59.8303 30.7624C58.3868 31.2374 56.8678 31.7414 56.4553 31.8829C56.0183 32.0329 56.2153 31.5809 56.9278 30.7989C57.6003 30.0614 58.8368 29.2799 59.6763 29.0624C60.5663 28.8319 61.5153 28.0949 61.9538 27.2944C62.6698 25.9859 62.6393 25.8639 61.3023 24.7009C59.4908 23.1244 57.7928 23.1429 56.5268 24.7529C55.7883 25.6914 55.5988 26.4774 55.8048 27.7479C56.0438 29.2174 55.7843 29.8589 54.0373 32.1234C52.9113 33.5829 50.5763 35.9274 48.8478 37.3329C41.8168 43.0524 30.5488 55.7499 25.1458 64.0419C22.7493 67.7204 20.6933 70.4434 20.5768 70.0939C20.2258 69.0409 22.2938 62.9359 24.2608 59.2179C27.7128 52.6934 35.3988 41.9504 38.6683 39.0799C41.1103 36.9354 43.6288 35.7144 47.0798 35.0024C48.6608 34.6759 50.2923 34.0714 50.7048 33.6589C51.7463 32.6174 51.6418 30.9929 50.4518 29.7264L49.4488 28.6584L54.4518 25.0069C57.2038 22.9989 59.4553 21.2714 59.4553 21.1679C59.4553 20.3839 57.3838 21.4789 53.3803 24.3784C47.6898 28.4999 47.4553 28.6479 47.4553 28.1189C47.4553 27.1209 53.2508 20.9254 55.7143 19.2899C59.1813 16.9874 59.8308 15.8554 58.4668 14.4914C57.0668 13.0914 54.3078 13.1479 52.9318 14.6049C52.0773 15.5099 51.9233 16.1349 52.1453 17.7989C52.4083 19.7744 52.2703 20.0454 49.0903 23.7989C45.7568 27.7334 44.8913 28.5824 44.5543 28.2454C44.2088 27.8999 45.6123 25.7134 47.5263 23.6159C48.9873 22.0149 49.4553 21.0819 49.4553 19.7694C49.4553 16.7204 46.1333 15.4114 44.0423 17.6369C42.7443 19.0189 42.6473 21.0539 43.7878 22.9844C44.6178 24.3899 44.6103 24.4089 41.0808 30.0619C39.1338 33.1794 36.3778 37.3049 34.9563 39.2299C32.3833 42.7134 24.0843 56.2614 21.9863 60.4034C21.3808 61.5989 20.8098 62.4989 20.7173 62.4034C20.3128 61.9864 21.5648 52.8539 22.7223 47.7799C23.4183 44.7274 24.2273 41.1489 24.5193 39.8274C24.8978 38.1139 25.6103 36.8704 27.0028 35.4914C28.2853 34.2214 28.9553 33.1084 28.9553 32.2464C28.9553 30.9389 26.9963 28.4799 25.9553 28.4799C25.6553 28.4799 24.8578 29.0324 24.1828 29.7074C22.8418 31.0479 22.6213 32.8724 23.4968 35.3844C23.9443 36.6684 23.7128 38.4599 22.1608 45.7064C21.1283 50.5289 20.1968 54.3879 20.0908 54.2824C19.6533 53.8444 20.9968 33.5024 21.6403 30.8244C22.0238 29.2264 22.7993 27.4264 23.3633 26.8244C24.8088 25.2814 25.4813 23.2359 25.1268 21.4624C24.5048 18.3514 21.4588 18.6999 19.8073 22.0704C18.9693 23.7814 18.9633 24.0299 19.7183 25.8164C20.3573 27.3299 20.4568 28.6279 20.1938 32.0264C19.3033 43.5349 18.1983 34.6429 18.5718 18.9734L18.8283 8.20692L20.6418 6.39342C22.0483 4.98692 22.4553 4.17992 22.4553 2.79742C22.4553 0.0939219 20.1278 -0.879577 17.9263 0.902923ZM16.4478 22.3844C16.4418 23.7599 16.3168 24.0389 15.9553 23.4799C15.3103 22.4819 15.3103 19.8314 15.9553 20.2299C16.2303 20.3999 16.4518 21.3694 16.4478 22.3844ZM42.9923 30.6189L41.8348 31.7299L42.7128 30.3394C43.1958 29.5744 43.7163 29.0744 43.8703 29.2284C44.0238 29.3819 43.6288 30.0079 42.9923 30.6189ZM38.8533 36.9574C38.5178 37.4949 38.1733 37.8644 38.0873 37.7789C37.7913 37.4824 38.5643 35.9799 39.0128 35.9799C39.2608 35.9799 39.1893 36.4199 38.8533 36.9574ZM67.2543 53.4984C69.6658 54.4154 67.9508 55.1369 64.3758 54.7094C61.2313 54.3329 61.2173 54.3249 62.7053 53.6774C64.5593 52.8709 65.5058 52.8339 67.2543 53.4984ZM65.5533 56.6519C66.0713 57.4704 65.8378 57.5039 63.6773 56.9199C60.7263 56.1224 60.2228 55.2994 62.9553 55.7399C64.1928 55.9394 65.3618 56.3494 65.5533 56.6519ZM43.8653 63.8279C43.6773 64.8054 40.5818 66.7729 40.0573 66.2484C39.6603 65.8514 42.6848 62.9799 43.4998 62.9799C43.7908 62.9799 43.9553 63.3614 43.8653 63.8279ZM28.1553 85.6799C26.4078 87.4274 26.0673 88.8204 26.9728 90.5129C27.6933 91.8589 29.8368 91.7424 32.0538 90.2359C34.6018 88.5044 34.8928 87.2414 33.1603 85.4329C31.3513 83.5449 30.2353 83.5999 28.1553 85.6799ZM14.2968 110.574C14.1373 110.972 14.0188 110.854 13.9948 110.271C13.9733 109.744 14.0913 109.449 14.2573 109.615C14.4233 109.781 14.4413 110.213 14.2968 110.574Z" fill="black"/>
</svg>
